<svg width="464" height="255" viewBox="0 0 464 255" fill="none" xmlns="http://www.w3.org/2000/svg">
<path fill-rule="evenodd" clip-rule="evenodd" d="M0 35.0907C0 16.8152 14.8152 2 33.0907 2H223C347.089 46.4463 432.083 137.135 432.083 241.784C432.083 245.34 431.985 248.88 431.79 252.403H33.0907C14.8152 252.403 0 237.588 0 219.312V35.0907Z" fill="#EEFFEE"/>
<g filter="url(#filter0_d_209_133)">
<path fill-rule="evenodd" clip-rule="evenodd" d="M431.847 241.784C431.847 245.34 431.749 248.88 431.555 252.403H463.668C463.509 138.414 363.742 41.0315 223 2C346.949 46.4463 431.847 137.135 431.847 241.784Z" fill="#0FB300"/>
</g>
<g clip-path="url(#clip0_209_133)">
<path d="M82.0296 138.423C80.6109 139.302 78.386 140.613 75.5451 142.016C72.0785 143.729 71.1292 143.886 68.3054 145.439C65.7133 146.863 63.672 147.987 61.4709 150.132C60.0932 151.481 57.8919 153.678 56.7828 157.206C56.3611 158.542 55.895 160.084 56.2623 162.019C56.4189 162.87 56.7079 163.623 57.055 164.274C55.7315 165.656 54.6498 167.233 53.9558 169.056C51.605 175.23 54.5408 180.526 55.565 182.597C58.1707 187.859 62.0526 190.424 62.0526 190.424C62.0526 190.424 50.1147 187.737 45.0832 177.553C42.2357 171.784 42.4976 166.395 42.7391 164.165C43.6408 155.803 47.8628 151.352 50.5266 149.032C51.9314 147.81 52.6016 146.836 61.9984 141.271H62.0016C63.9986 141.516 66.2916 141.635 68.8261 141.495C74.4667 141.185 78.9984 139.707 82.0296 138.423Z" fill="#0B8900"/>
<path d="M108.13 168.238C107.263 170.588 105.97 173.203 103.919 175.816C102.231 177.965 96.764 184.279 87.7622 185.904C85.3229 186.343 80.3628 187.164 75.6611 184.511C74.2423 183.711 71.3745 182.093 70.6225 178.946C69.7654 175.363 72.2148 172.131 72.9395 171.177C74.1676 169.559 75.5047 168.65 76.5285 167.989C80.2538 165.581 83.0742 164.341 85.687 163.153C86.2755 163.197 86.8912 163.228 87.5306 163.234C90.4941 163.268 92.9876 162.832 94.8283 162.366C91.991 163.582 87.6466 165.448 87.1261 165.67C85.136 166.525 83.724 167.127 82.3188 168.568C81.567 169.341 80.4546 170.513 80.1177 172.396C80.0394 172.832 79.4647 175.543 80.8153 176.626C81.6998 177.338 82.8427 176.892 85.0404 176.568C88.4901 176.061 89.1094 176.65 91.8752 176.395C95.4407 176.064 98.0092 174.746 100.676 173.381C103.643 171.858 106.113 170.046 108.13 168.238Z" fill="#0B8900"/>
<path d="M69.1154 82.0728C69.4147 88.5031 68.5403 93.7685 67.6697 97.3786C67.5741 97.7669 67.4721 98.1997 67.3495 98.6696C63.451 98.9421 60.212 98.4381 57.9395 98.0737C55.6056 97.6955 53.4726 97.1813 51.5571 96.6023C54.4558 92.8762 56.5618 89.787 58.3445 86.2482C64.6619 73.7283 63.8456 63 63.8456 63C63.8456 63 74.9772 72.1652 78.2667 80.6834C80.4919 86.4526 80.9646 91.497 81.1109 94.4598C77.8859 96.265 73.8508 97.8862 69.1222 98.4923C70.3435 91.5446 69.7618 85.7274 69.1154 82.0728Z" fill="#0FB300"/>
<path d="M67.3499 98.6696C66.3972 102.409 64.4954 108.625 59.9095 114.885C58.899 116.268 56.1638 119.016 50.7002 124.51C42.0486 133.212 41.3719 133.471 39.3507 136.277C37.2381 139.216 34.1422 143.62 32.8087 150.132C32.5333 151.474 31.4139 157.397 33.2715 164.859C34.3499 169.188 36.0031 172.863 37.6225 175.744C34.5607 172.175 30.6449 166.191 30.0563 158.248C29.5325 151.171 31.8697 145.473 33.0093 142.772C35.2513 137.473 38.2588 133.733 40.3951 131.468C38.0444 131.846 34.1798 132.776 30.0563 135.293C27.8654 136.635 26.1066 138.11 24.7322 139.489C25.0793 137.538 25.5963 135.32 26.3652 132.946C28.5016 126.336 31.4922 121.874 34.3123 117.729C37.9493 112.389 39.4257 111.455 44.9336 104.77C47.543 101.602 49.71 98.9729 51.5574 96.6023C53.4728 97.1813 55.6059 97.6955 57.9399 98.0738C60.2123 98.4381 63.451 98.9421 67.3499 98.6696Z" fill="#0C8900"/>
<path d="M42.6269 182.835C42.4536 182.726 36.8503 179.157 32.8801 173.902C31.7029 172.345 29.0086 168.555 26.9095 162.989C24.205 155.823 23.987 149.703 24.0005 147.033C24.0042 146.12 24.0448 143.32 24.7288 139.492L24.7322 139.489C26.1065 138.11 27.8654 136.635 30.0563 135.293C34.1798 132.776 38.0444 131.846 40.3951 131.468C38.2588 133.733 35.2513 137.473 33.0092 142.772C31.8697 145.473 29.5324 151.171 30.0563 158.249C30.6449 166.191 34.5606 172.175 37.6225 175.744C37.6225 175.748 37.6225 175.748 37.6259 175.751C40.106 180.165 42.5044 182.706 42.6269 182.835Z" fill="#1A3D0A"/>
<path d="M61.4133 123.236C59.8414 125.532 58.4058 127.119 56.2047 129.554C53.3367 132.722 52.6837 133.072 49.1385 136.744C45.1039 140.92 43.0898 143.008 41.3207 145.729C39.208 148.978 37.9698 152.098 37.211 154.57C40.1639 143.729 44.2158 138.219 47.5157 135.177C47.9445 134.782 48.3426 134.445 49.8326 133.089C55.6535 127.797 58.5624 125.151 60.9506 122.191C62.3897 120.409 64.3322 117.702 66.1628 113.959C64.6622 118.063 62.8524 121.135 61.4133 123.236ZM81.1621 95.6384C81.1485 95.2946 81.1351 94.8994 81.1112 94.4602C77.8861 96.2654 73.8512 97.8864 69.1222 98.4927C69.0508 98.9081 68.9693 99.3307 68.8841 99.7563C67.0711 108.652 63.189 114.613 62.2265 116.046C60.7091 118.301 57.9465 121.901 51.3398 127.987C46.2434 132.684 43.7394 135.419 42.1305 137.786C37.2961 144.898 36.4761 151.369 36.2822 153.324C35.7038 159.121 37.5581 163.814 37.5581 163.814C37.5581 163.814 37.4049 154.209 45.9508 145.776C47.8425 143.91 50.7002 141.379 59.1576 135.756C64.8937 131.942 67.5302 129.598 69.5203 127.524C74.644 122.187 77.141 116.694 78.0358 114.538C81.4583 106.296 81.2846 99.1604 81.1621 95.6384Z" fill="#0C8900"/>
<path d="M66.1626 113.958C64.6624 118.062 62.8523 121.135 61.4132 123.236C59.8416 125.532 58.4058 127.119 56.2049 129.554C53.3369 132.721 52.6837 133.072 49.1389 136.744C45.1038 140.919 43.09 143.007 41.3209 145.728C39.2079 148.978 37.9696 152.097 37.2109 154.57C40.1641 143.729 44.216 138.219 47.5161 135.177C47.9447 134.782 48.3425 134.445 49.8328 133.089C55.6537 127.796 58.5623 125.15 60.9508 122.191C62.3899 120.409 64.3324 117.701 66.1626 113.958Z" fill="#1A3D0A"/>
<path fill-rule="evenodd" clip-rule="evenodd" d="M109.679 162.841C109.689 162.798 109.699 162.756 109.709 162.713C111.127 156.613 110.695 151.746 110.403 148.742C110.022 144.788 108.926 138.484 105.426 131.352C105.885 133.133 106.518 136.383 106.011 140.34C106.011 140.34 106.011 140.341 106.012 140.342C105.895 141.193 105.733 141.972 105.497 142.903C105.082 144.534 104.451 146.238 103.843 147.538C103.843 147.54 103.844 147.541 103.844 147.543C102.454 150.356 100.758 152.328 99.6319 153.613C95.6822 158.119 91.2017 160.449 88.5718 161.787C87.6159 162.274 86.6666 162.71 85.6868 163.153C86.2755 163.197 86.8912 163.227 87.5306 163.234C90.4941 163.268 92.9876 162.832 94.8283 162.366C93.4894 162.94 91.8149 163.658 90.365 164.281C88.7422 164.977 87.401 165.553 87.1261 165.67L87.1 165.681C85.1233 166.53 83.7177 167.134 82.3188 168.568C81.567 169.341 80.4546 170.513 80.1177 172.396C80.1143 172.415 80.11 172.437 80.1051 172.464C79.9938 173.061 79.522 175.589 80.8149 176.626C81.5065 177.183 82.3559 177.032 83.7433 176.785C84.1309 176.716 84.5605 176.639 85.0404 176.568C86.991 176.281 88.0366 176.345 89.0769 176.408C89.8766 176.457 90.6732 176.506 91.8752 176.395C95.4339 176.065 97.9996 174.751 100.661 173.388L100.676 173.381C103.643 171.858 106.113 170.046 108.13 168.237C108.897 166.179 109.333 164.317 109.679 162.841Z" fill="#0FB300"/>
<path d="M105.566 142.655C105.187 144.177 104.684 145.546 104.119 146.76C104.394 147.549 104.613 148.519 104.627 149.615C104.68 154.389 100.831 157.418 100.285 157.821C100.577 158.04 100.861 158.246 101.154 158.464C101.997 157.946 106.243 155.212 107.519 149.717C108.478 145.607 107.269 142.1 106.068 139.878C105.964 140.771 105.804 141.697 105.566 142.655Z" fill="url(#paint0_linear_209_133)"/>
<path fill-rule="evenodd" clip-rule="evenodd" d="M95.5804 112.337C98.4243 116.322 100.527 121.857 100.734 127.003C101.116 136.563 99.2272 140.627 92.4234 146.597C89.2319 149.397 82.0878 152.625 77.6582 154.161C75.2173 155.008 73.5986 155.465 72.2616 155.843C70.2444 156.412 68.8685 156.801 66.2782 158.075C63.0089 159.686 59.5899 161.624 57.0555 164.273C56.7083 163.623 56.4193 162.87 56.2627 162.019C55.8951 160.084 56.3615 158.541 56.7833 157.206C57.8921 153.678 60.0934 151.481 61.4713 150.132C63.6724 147.987 65.7137 146.863 68.3059 145.439C69.8802 144.573 70.8717 144.141 72.0417 143.632C72.9704 143.227 74.0115 142.774 75.5455 142.016C78.3864 140.613 80.6113 139.302 82.03 138.423C78.9988 139.707 74.4671 141.185 68.8265 141.495C66.292 141.635 63.999 141.516 62.0021 141.27C64.2676 139.928 67.0369 138.321 70.4493 136.38C73.7069 134.523 75.029 133.647 76.7719 132.491C77.3315 132.12 77.9343 131.72 78.6586 131.25C81.9993 129.074 86.6602 124.306 88.1674 119.555C90.8141 111.22 85.6531 103.022 85.524 102.818C85.6974 102.92 91.2834 106.312 95.5804 112.337Z" fill="#0FB300"/>
<path d="M90.8242 127.468C88.9457 130.525 86.6051 132.288 85.2622 133.156C86.525 135.023 87.7823 136.904 89.0451 138.771C90.0145 138.221 91.5599 137.176 92.917 135.415C93.3502 134.849 96.4235 130.733 95.5221 125.203C95.1561 122.979 94.2606 121.217 93.4347 119.989C93.2487 121.564 92.7121 124.432 90.8242 127.468Z" fill="url(#paint1_linear_209_133)"/>
<path d="M132.406 87.2659H144.106V98.6515H132.406V87.2659Z" fill="#0FB300"/>
<path d="M144.109 145.36H132.404V112.543L144.104 112.468L144.109 145.36Z" fill="#0FB300"/>
<path d="M190.393 145.359H176.579L162.956 123.248L144.109 123.214L144.105 112.468L171.678 112.289C171.678 112.289 178.297 110.947 177.502 104.928C176.706 98.9062 171.232 98.6523 171.232 98.6523H144.105V87.2676H171.02C176.623 87.2676 189.182 92.2391 189.182 105.447C189.182 120.444 176.452 122.929 176.452 122.929L190.393 145.359Z" fill="#1A3D0A"/>
<path d="M248.59 127.857C248.59 130.226 248.119 132.487 247.266 134.548C244.642 140.895 238.394 145.36 231.106 145.36H195.411V111.308H207.217V134.548H230.855C234.275 134.548 237.05 131.771 237.05 128.347C237.05 125.721 235.42 123.477 233.119 122.574C233.243 122.559 233.368 122.541 233.492 122.521C237.836 121.88 241.664 119.661 244.38 116.464C245.882 118.216 247.045 120.27 247.763 122.521C248.301 124.203 248.59 125.995 248.59 127.857Z" fill="#0FB300"/>
<path d="M248.59 104.991C248.59 107.212 248.181 109.341 247.433 111.3C246.713 113.199 245.671 114.941 244.38 116.464C241.664 119.661 237.836 121.88 233.492 122.521H210.951L216.634 116.831L211.118 111.307H230.193C231.273 111.307 232.263 110.951 233.155 110.474C235.16 109.403 236.524 107.289 236.524 104.856C236.524 101.339 233.677 98.4893 230.166 98.4893H195.411V87.2656H230.884C238.371 87.2656 244.773 91.9156 247.361 98.4893C248.154 100.504 248.59 102.695 248.59 104.991Z" fill="#1A3D0A"/>
<path d="M268.554 104.864V111.81H299.584V122.387H256.695V103.409C256.695 99.5229 259.367 95.1253 261.234 93.2561C263.101 91.3865 266.836 87.3733 272.947 87.3733H308.607V98.3323H275.143C272.979 98.3323 268.554 100.913 268.554 104.864Z" fill="#1A3D0A"/>
<path d="M256.696 125.032H268.619V145.635H256.696V125.032Z" fill="#0FB300"/>
<path d="M326.158 87.2649V93.9387L322.321 97.7796L319.9 95.3588L314.234 101.031V89.476C314.234 88.2556 315.223 87.2649 316.443 87.2649H326.158Z" fill="#0FB300"/>
<path d="M326.158 97.2729V143.425C326.158 144.645 325.169 145.634 323.949 145.634H314.234V104.366L319.9 98.693L322.321 101.114L326.158 97.2729Z" fill="#1A3D0A"/>
<path d="M138.834 165.64L136.448 161.303H135.778V165.64H132.982V154.152H137.674C138.578 154.152 139.346 154.31 139.978 154.627C140.621 154.943 141.101 155.38 141.417 155.936C141.733 156.481 141.891 157.092 141.891 157.769C141.891 158.532 141.673 159.214 141.237 159.814C140.812 160.414 140.18 160.84 139.341 161.091L141.989 165.64H138.834ZM135.778 159.323H137.51C138.022 159.323 138.404 159.198 138.654 158.947C138.916 158.696 139.047 158.341 139.047 157.883C139.047 157.447 138.916 157.103 138.654 156.852C138.404 156.601 138.022 156.476 137.51 156.476H135.778V159.323ZM143.09 161.058C143.09 160.12 143.264 159.296 143.613 158.587C143.972 157.878 144.457 157.332 145.067 156.951C145.678 156.569 146.359 156.378 147.111 156.378C147.754 156.378 148.315 156.509 148.794 156.77C149.285 157.032 149.661 157.376 149.922 157.801V156.509H152.717V165.64H149.922V164.347C149.65 164.772 149.268 165.116 148.778 165.378C148.298 165.64 147.737 165.771 147.094 165.771C146.353 165.771 145.678 165.58 145.067 165.198C144.457 164.805 143.972 164.254 143.613 163.545C143.264 162.825 143.09 161.996 143.09 161.058ZM149.922 161.074C149.922 160.376 149.726 159.825 149.334 159.421C148.952 159.018 148.484 158.816 147.928 158.816C147.372 158.816 146.898 159.018 146.506 159.421C146.125 159.814 145.934 160.36 145.934 161.058C145.934 161.756 146.125 162.312 146.506 162.727C146.898 163.131 147.372 163.332 147.928 163.332C148.484 163.332 148.952 163.131 149.334 162.727C149.726 162.323 149.922 161.772 149.922 161.074ZM158.842 163.021L160.82 156.509H163.795L160.558 165.64H157.109L153.873 156.509H156.864L158.842 163.021ZM166.378 155.56C165.887 155.56 165.483 155.418 165.167 155.134C164.863 154.839 164.71 154.48 164.71 154.054C164.71 153.618 164.863 153.258 165.167 152.974C165.483 152.679 165.887 152.532 166.378 152.532C166.856 152.532 167.249 152.679 167.555 152.974C167.87 153.258 168.028 153.618 168.028 154.054C168.028 154.48 167.87 154.839 167.555 155.134C167.249 155.418 166.856 155.56 166.378 155.56ZM167.766 156.509V165.64H164.971V156.509H167.766ZM180.202 159.749C180.867 159.89 181.401 160.223 181.804 160.747C182.208 161.26 182.41 161.849 182.41 162.514C182.41 163.474 182.071 164.238 181.396 164.805C180.731 165.362 179.799 165.64 178.602 165.64H173.256V154.152H178.422C179.587 154.152 180.497 154.42 181.151 154.954C181.816 155.489 182.148 156.214 182.148 157.131C182.148 157.807 181.968 158.369 181.609 158.816C181.26 159.263 180.791 159.574 180.202 159.749ZM176.051 158.8H177.882C178.34 158.8 178.689 158.701 178.928 158.505C179.178 158.298 179.304 157.998 179.304 157.605C179.304 157.212 179.178 156.912 178.928 156.705C178.689 156.498 178.34 156.394 177.882 156.394H176.051V158.8ZM178.11 163.382C178.58 163.382 178.939 163.278 179.19 163.071C179.451 162.852 179.582 162.541 179.582 162.138C179.582 161.734 179.445 161.418 179.173 161.189C178.911 160.96 178.546 160.845 178.078 160.845H176.051V163.382H178.11ZM185.436 155.56C184.946 155.56 184.543 155.418 184.227 155.134C183.922 154.839 183.769 154.48 183.769 154.054C183.769 153.618 183.922 153.258 184.227 152.974C184.543 152.679 184.946 152.532 185.436 152.532C185.916 152.532 186.309 152.679 186.613 152.974C186.929 153.258 187.088 153.618 187.088 154.054C187.088 154.48 186.929 154.839 186.613 155.134C186.309 155.418 185.916 155.56 185.436 155.56ZM186.826 156.509V165.64H184.031V156.509H186.826ZM193.003 165.771C192.11 165.771 191.304 165.58 190.585 165.198C189.876 164.816 189.314 164.271 188.901 163.562C188.498 162.852 188.296 162.023 188.296 161.074C188.296 160.136 188.503 159.312 188.916 158.603C189.331 157.883 189.898 157.332 190.617 156.951C191.336 156.569 192.143 156.378 193.036 156.378C193.93 156.378 194.736 156.569 195.456 156.951C196.175 157.332 196.741 157.883 197.155 158.603C197.57 159.312 197.776 160.136 197.776 161.074C197.776 162.012 197.564 162.841 197.139 163.562C196.724 164.271 196.153 164.816 195.423 165.198C194.704 165.58 193.896 165.771 193.003 165.771ZM193.003 163.349C193.537 163.349 193.99 163.152 194.36 162.76C194.741 162.367 194.932 161.805 194.932 161.074C194.932 160.343 194.746 159.781 194.376 159.389C194.017 158.996 193.57 158.8 193.036 158.8C192.491 158.8 192.039 158.996 191.68 159.389C191.319 159.771 191.139 160.332 191.139 161.074C191.139 161.805 191.314 162.367 191.663 162.76C192.022 163.152 192.469 163.349 193.003 163.349ZM210.193 154.152V156.394H205.517V158.816H209.016V160.992H205.517V165.64H202.723V154.152H210.193ZM220.668 156.509V165.64H217.874V164.396C217.59 164.8 217.204 165.127 216.712 165.378C216.234 165.618 215.7 165.738 215.112 165.738C214.413 165.738 213.797 165.585 213.265 165.28C212.731 164.963 212.316 164.511 212.022 163.921C211.727 163.332 211.581 162.64 211.581 161.843V156.509H214.358V161.467C214.358 162.078 214.517 162.552 214.833 162.891C215.149 163.229 215.574 163.398 216.108 163.398C216.653 163.398 217.083 163.229 217.399 162.891C217.716 162.552 217.874 162.078 217.874 161.467V156.509H220.668ZM231.274 160.927C231.274 161.189 231.258 161.461 231.225 161.745H224.899C224.943 162.312 225.123 162.749 225.439 163.054C225.766 163.349 226.164 163.496 226.632 163.496C227.329 163.496 227.814 163.202 228.087 162.612H231.062C230.909 163.212 230.632 163.752 230.228 164.233C229.836 164.712 229.339 165.089 228.741 165.362C228.142 165.634 227.472 165.771 226.73 165.771C225.836 165.771 225.041 165.58 224.344 165.198C223.647 164.816 223.101 164.271 222.71 163.562C222.317 162.852 222.121 162.023 222.121 161.074C222.121 160.125 222.312 159.296 222.693 158.587C223.085 157.878 223.63 157.332 224.327 156.951C225.024 156.569 225.825 156.378 226.73 156.378C227.613 156.378 228.397 156.563 229.084 156.934C229.77 157.305 230.304 157.834 230.686 158.521C231.077 159.209 231.274 160.011 231.274 160.927ZM228.414 160.191C228.414 159.711 228.251 159.329 227.923 159.045C227.596 158.761 227.188 158.62 226.698 158.62C226.229 158.62 225.831 158.756 225.504 159.029C225.188 159.301 224.992 159.689 224.916 160.191H228.414ZM235.544 153.53V165.64H232.748V153.53H235.544ZM243.829 154.152V165.64H241.033V154.152H243.829ZM251.411 156.41C252.479 156.41 253.33 156.76 253.961 157.458C254.604 158.145 254.925 159.094 254.925 160.305V165.64H252.148V160.682C252.148 160.071 251.989 159.596 251.673 159.258C251.357 158.92 250.932 158.751 250.398 158.751C249.864 158.751 249.439 158.92 249.122 159.258C248.807 159.596 248.649 160.071 248.649 160.682V165.64H245.854V156.509H248.649V157.72C248.932 157.316 249.314 157 249.794 156.77C250.272 156.531 250.813 156.41 251.411 156.41ZM256.312 161.058C256.312 160.12 256.487 159.296 256.836 158.587C257.195 157.878 257.68 157.332 258.29 156.951C258.901 156.569 259.581 156.378 260.333 156.378C260.933 156.378 261.477 156.503 261.969 156.754C262.469 157.005 262.862 157.343 263.145 157.769V153.53H265.94V165.64H263.145V164.331C262.884 164.767 262.508 165.116 262.016 165.378C261.537 165.64 260.976 165.771 260.333 165.771C259.581 165.771 258.901 165.58 258.29 165.198C257.68 164.805 257.195 164.254 256.836 163.545C256.487 162.825 256.312 161.996 256.312 161.058ZM263.145 161.074C263.145 160.376 262.948 159.825 262.557 159.421C262.175 159.018 261.707 158.816 261.151 158.816C260.595 158.816 260.122 159.018 259.729 159.421C259.348 159.814 259.156 160.36 259.156 161.058C259.156 161.756 259.348 162.312 259.729 162.727C260.122 163.131 260.595 163.332 261.151 163.332C261.707 163.332 262.175 163.131 262.557 162.727C262.948 162.323 263.145 161.772 263.145 161.074ZM276.969 156.509V165.64H274.173V164.396C273.89 164.8 273.503 165.127 273.013 165.378C272.533 165.618 271.999 165.738 271.411 165.738C270.714 165.738 270.098 165.585 269.564 165.28C269.03 164.963 268.616 164.511 268.322 163.921C268.028 163.332 267.88 162.64 267.88 161.843V156.509H270.659V161.467C270.659 162.078 270.817 162.552 271.134 162.891C271.449 163.229 271.874 163.398 272.408 163.398C272.953 163.398 273.384 163.229 273.7 162.891C274.015 162.552 274.173 162.078 274.173 161.467V156.509H276.969ZM282.686 165.771C281.892 165.771 281.183 165.634 280.562 165.362C279.941 165.089 279.451 164.718 279.091 164.249C278.732 163.769 278.529 163.234 278.485 162.645H281.249C281.281 162.962 281.428 163.218 281.689 163.414C281.951 163.611 282.273 163.709 282.654 163.709C283.002 163.709 283.269 163.643 283.455 163.512C283.652 163.371 283.749 163.191 283.749 162.972C283.749 162.711 283.613 162.52 283.341 162.4C283.068 162.269 282.626 162.127 282.016 161.974C281.363 161.821 280.818 161.663 280.382 161.5C279.946 161.325 279.57 161.058 279.254 160.698C278.938 160.327 278.78 159.831 278.78 159.209C278.78 158.685 278.922 158.21 279.205 157.785C279.499 157.349 279.924 157.005 280.48 156.754C281.046 156.503 281.717 156.378 282.49 156.378C283.635 156.378 284.534 156.661 285.188 157.229C285.853 157.796 286.234 158.549 286.332 159.487H283.749C283.706 159.171 283.564 158.92 283.324 158.734C283.096 158.549 282.79 158.456 282.409 158.456C282.082 158.456 281.832 158.521 281.657 158.652C281.482 158.772 281.395 158.941 281.395 159.16C281.395 159.421 281.531 159.618 281.803 159.749C282.087 159.88 282.523 160.011 283.111 160.141C283.788 160.316 284.337 160.491 284.763 160.665C285.188 160.829 285.558 161.101 285.875 161.483C286.201 161.854 286.37 162.356 286.381 162.989C286.381 163.523 286.228 164.003 285.923 164.429C285.628 164.843 285.198 165.171 284.632 165.411C284.076 165.651 283.428 165.771 282.686 165.771ZM293.175 163.267V165.64H291.753C290.739 165.64 289.948 165.394 289.382 164.903C288.816 164.402 288.532 163.589 288.532 162.465V158.832H287.421V156.509H288.532V154.283H291.328V156.509H293.158V158.832H291.328V162.498C291.328 162.771 291.392 162.967 291.523 163.087C291.654 163.207 291.872 163.267 292.178 163.267H293.175ZM297.527 158.031C297.854 157.529 298.262 157.136 298.752 156.852C299.243 156.558 299.787 156.41 300.388 156.41V159.372H299.619C298.922 159.372 298.398 159.525 298.049 159.831C297.701 160.125 297.527 160.649 297.527 161.402V165.64H294.731V156.509H297.527V158.031ZM303.129 155.56C302.638 155.56 302.235 155.418 301.92 155.134C301.614 154.839 301.462 154.48 301.462 154.054C301.462 153.618 301.614 153.258 301.92 152.974C302.235 152.679 302.638 152.532 303.129 152.532C303.609 152.532 304 152.679 304.306 152.974C304.622 153.258 304.78 153.618 304.78 154.054C304.78 154.48 304.622 154.839 304.306 155.134C304 155.418 303.609 155.56 303.129 155.56ZM304.518 156.509V165.64H301.723V156.509H304.518ZM315.142 160.927C315.142 161.189 315.125 161.461 315.092 161.745H308.767C308.81 162.312 308.99 162.749 309.306 163.054C309.633 163.349 310.031 163.496 310.499 163.496C311.196 163.496 311.682 163.202 311.954 162.612H314.929C314.776 163.212 314.499 163.752 314.096 164.233C313.703 164.712 313.208 165.089 312.608 165.362C312.009 165.634 311.339 165.771 310.597 165.771C309.704 165.771 308.908 165.58 308.211 165.198C307.514 164.816 306.968 164.271 306.577 163.562C306.184 162.852 305.988 162.023 305.988 161.074C305.988 160.125 306.179 159.296 306.56 158.587C306.953 157.878 307.497 157.332 308.194 156.951C308.892 156.569 309.693 156.378 310.597 156.378C311.48 156.378 312.264 156.563 312.951 156.934C313.638 157.305 314.172 157.834 314.553 158.521C314.946 159.209 315.142 160.011 315.142 160.927ZM312.281 160.191C312.281 159.711 312.118 159.329 311.791 159.045C311.463 158.761 311.055 158.62 310.565 158.62C310.096 158.62 309.698 158.756 309.371 159.029C309.055 159.301 308.859 159.689 308.783 160.191H312.281ZM320.326 165.771C319.532 165.771 318.823 165.634 318.202 165.362C317.581 165.089 317.09 164.718 316.731 164.249C316.37 163.769 316.169 163.234 316.125 162.645H318.889C318.921 162.962 319.068 163.218 319.329 163.414C319.591 163.611 319.913 163.709 320.294 163.709C320.642 163.709 320.909 163.643 321.095 163.512C321.291 163.371 321.389 163.191 321.389 162.972C321.389 162.711 321.253 162.52 320.981 162.4C320.709 162.269 320.267 162.127 319.656 161.974C319.003 161.821 318.457 161.663 318.022 161.5C317.586 161.325 317.21 161.058 316.894 160.698C316.578 160.327 316.42 159.831 316.42 159.209C316.42 158.685 316.562 158.21 316.845 157.785C317.139 157.349 317.564 157.005 318.12 156.754C318.687 156.503 319.357 156.378 320.13 156.378C321.275 156.378 322.173 156.661 322.828 157.229C323.493 157.796 323.874 158.549 323.972 159.487H321.389C321.345 159.171 321.204 158.92 320.964 158.734C320.736 158.549 320.43 158.456 320.049 158.456C319.722 158.456 319.471 158.521 319.297 158.652C319.122 158.772 319.035 158.941 319.035 159.16C319.035 159.421 319.171 159.618 319.444 159.749C319.727 159.88 320.163 160.011 320.751 160.141C321.427 160.316 321.977 160.491 322.403 160.665C322.828 160.829 323.198 161.101 323.513 161.483C323.841 161.854 324.01 162.356 324.02 162.989C324.02 163.523 323.869 164.003 323.563 164.429C323.268 164.843 322.838 165.171 322.272 165.411C321.716 165.651 321.068 165.771 320.326 165.771Z" fill="#1A3D0A"/>
</g>
<defs>
<filter id="filter0_d_209_133" x="216.086" y="0.0244362" width="247.582" height="254.354" filterUnits="userSpaceOnUse" color-interpolation-filters="sRGB">
<feFlood flood-opacity="0" result="BackgroundImageFix"/>
<feColorMatrix in="SourceAlpha" type="matrix" values="0 0 0 0 0 0 0 0 0 0 0 0 0 0 0 0 0 0 127 0" result="hardAlpha"/>
<feOffset dx="-4.93891"/>
<feGaussianBlur stdDeviation="0.987782"/>
<feComposite in2="hardAlpha" operator="out"/>
<feColorMatrix type="matrix" values="0 0 0 0 0 0 0 0 0 0 0 0 0 0 0 0 0 0 0.25 0"/>
<feBlend mode="normal" in2="BackgroundImageFix" result="effect1_dropShadow_209_133"/>
<feBlend mode="normal" in="SourceGraphic" in2="effect1_dropShadow_209_133" result="shape"/>
</filter>
<linearGradient id="paint0_linear_209_133" x1="105.199" y1="144.669" x2="103.769" y2="154.898" gradientUnits="userSpaceOnUse">
<stop stop-color="#13FE00"/>
<stop offset="1" stop-color="#0FB300"/>
</linearGradient>
<linearGradient id="paint1_linear_209_133" x1="94.2741" y1="121.289" x2="88.675" y2="136.139" gradientUnits="userSpaceOnUse">
<stop stop-color="#13FE00"/>
<stop offset="0.13" stop-color="#13FE00"/>
<stop offset="0.85" stop-color="#0FB300"/>
<stop offset="1" stop-color="#0FB300"/>
</linearGradient>
<clipPath id="clip0_209_133">
<rect width="302.261" height="127.424" fill="white" transform="translate(24 63)"/>
</clipPath>
</defs>
</svg>
