<svg width="247" height="115" viewBox="0 0 247 115" fill="none" xmlns="http://www.w3.org/2000/svg">
<path fill-rule="evenodd" clip-rule="evenodd" d="M6 32.7929C6 18.5479 17.5479 7 31.7929 7H242.934C243.057 11.3683 242.704 15.7251 241.851 20.0536C230.046 79.9155 126.766 113.031 6 98.0606V32.7929Z" fill="white"/>
<g filter="url(#filter0_d_209_434)">
<path fill-rule="evenodd" clip-rule="evenodd" d="M241.851 20.0536C230.046 79.9155 126.766 113.031 6 98.0606V110.116C127.083 123.205 230.059 86.4914 242.52 22.6609C243.535 17.4639 243.921 12.2354 243.709 7H242.934C243.057 11.3683 242.704 15.7251 241.851 20.0536Z" fill="#0FB300"/>
</g>
<g clip-path="url(#clip0_209_434)">
<path d="M52.0398 60.9666C51.2888 61.4445 50.1111 62.158 48.6073 62.9212C46.7724 63.8532 46.2699 63.9384 44.7751 64.7834C43.403 65.5577 42.3225 66.1692 41.1574 67.3364C40.4281 68.0702 39.2629 69.2652 38.6758 71.1846C38.4526 71.911 38.2059 72.7503 38.4003 73.8026C38.4832 74.2658 38.6362 74.6752 38.8199 75.0292C38.1194 75.7814 37.5467 76.6392 37.1794 77.6306C35.935 80.9896 37.489 83.8707 38.0312 84.9973C39.4105 87.8598 41.4653 89.255 41.4653 89.255C41.4653 89.255 35.1462 87.793 32.4828 82.2533C30.9756 79.1147 31.1142 76.1834 31.242 74.9699C31.7193 70.4213 33.9542 67.9997 35.3642 66.738C36.1078 66.0728 36.4626 65.543 41.4366 62.5156H41.4383C42.4954 62.6488 43.7092 62.7138 45.0507 62.6377C48.0365 62.4691 50.4353 61.665 52.0398 60.9666Z" fill="#0B8900"/>
<path d="M65.8555 77.1856C65.3961 78.4641 64.712 79.887 63.6261 81.3081C62.7328 82.4772 59.8389 85.9123 55.074 86.796C53.7827 87.0351 51.1572 87.4816 48.6685 86.0382C47.9174 85.6029 46.3994 84.7228 46.0013 83.0108C45.5476 81.0617 46.8442 79.3034 47.2278 78.7847C47.8779 77.9045 48.5856 77.4098 49.1276 77.0504C51.0995 75.7404 52.5924 75.066 53.9754 74.4194C54.287 74.4435 54.6129 74.4602 54.9513 74.4638C56.52 74.4823 57.8399 74.2452 58.8143 73.9915C57.3124 74.6529 55.0128 75.6682 54.7372 75.7887C53.6838 76.2537 52.9364 76.5816 52.1926 77.3653C51.7946 77.7859 51.2058 78.4232 51.0274 79.4479C50.986 79.685 50.6818 81.1599 51.3967 81.749C51.8649 82.1363 52.4699 81.8936 53.6332 81.7175C55.4593 81.4416 55.7871 81.7621 57.2511 81.6231C59.1384 81.4433 60.498 80.7264 61.9098 79.9834C63.4802 79.1552 64.7875 78.1694 65.8555 77.1856Z" fill="#0B8900"/>
<path d="M45.2036 30.3121C45.362 33.8102 44.8992 36.6745 44.4383 38.6385C44.3877 38.8497 44.3337 39.0852 44.2688 39.3408C42.2052 39.489 40.4907 39.2148 39.2878 39.0166C38.0524 38.8108 36.9233 38.5311 35.9094 38.2161C37.4438 36.1892 38.5586 34.5087 39.5022 32.5835C42.8462 25.7727 42.4141 19.9365 42.4141 19.9365C42.4141 19.9365 48.3064 24.9224 50.0477 29.5563C51.2255 32.6947 51.4758 35.4389 51.5532 37.0506C49.8461 38.0327 47.7102 38.9146 45.2072 39.2443C45.8536 35.4648 45.5457 32.3002 45.2036 30.3121Z" fill="#0FB300"/>
<path d="M44.2692 39.3409C43.7649 41.3753 42.7582 44.7566 40.3307 48.162C39.7958 48.9143 38.348 50.4095 35.456 53.3981C30.8764 58.132 30.5181 58.2728 29.4483 59.7995C28.33 61.3983 26.6912 63.7941 25.9854 67.3365C25.8396 68.0665 25.247 71.2886 26.2303 75.3481C26.8012 77.7029 27.6763 79.702 28.5335 81.2696C26.9128 79.3279 24.84 76.0725 24.5285 71.7518C24.2512 67.9017 25.4883 64.8019 26.0915 63.3326C27.2783 60.4498 28.8703 58.4155 30.0011 57.1833C28.7568 57.389 26.7111 57.8947 24.5285 59.264C23.3687 59.994 22.4377 60.7963 21.7102 61.5466C21.894 60.4851 22.1676 59.2788 22.5746 57.9873C23.7055 54.3912 25.2885 51.964 26.7813 49.7092C28.7065 46.804 29.488 46.2962 32.4035 42.6593C33.7847 40.9362 34.9318 39.5059 35.9097 38.2163C36.9236 38.5313 38.0527 38.811 39.2881 39.0168C40.491 39.215 42.2053 39.4892 44.2692 39.3409Z" fill="#0C8900"/>
<path d="M31.1823 85.1266C31.0906 85.0673 28.1246 83.1256 26.023 80.2668C25.3999 79.4201 23.9737 77.3579 22.8626 74.3304C21.431 70.4322 21.3156 67.1027 21.3228 65.6501C21.3247 65.1536 21.3462 63.6305 21.7083 61.548L21.7101 61.5462C22.4376 60.7959 23.3686 59.9936 24.5283 59.2636C26.711 57.8943 28.7567 57.3885 30.001 57.1829C28.8701 58.4149 27.2782 60.4494 26.0914 63.3323C25.4882 64.8015 24.251 67.9013 24.5283 71.7515C24.8399 76.0721 26.9126 79.3275 28.5333 81.2692C28.5333 81.271 28.5333 81.271 28.5351 81.2728C29.848 83.6741 31.1175 85.0563 31.1823 85.1266Z" fill="#1A3D0A"/>
<path d="M41.1268 52.705C40.2947 53.9538 39.5348 54.8172 38.3697 56.1419C36.8516 57.865 36.5059 58.0558 34.6293 60.0531C32.4937 62.3247 31.4275 63.4605 30.4911 64.9408C29.3728 66.7084 28.7173 68.4055 28.3157 69.7506C29.8788 63.8532 32.0236 60.8554 33.7703 59.2008C33.9973 58.9859 34.208 58.8025 34.9967 58.065C38.0779 55.186 39.6177 53.7463 40.8818 52.1362C41.6436 51.1671 42.6719 49.6942 43.6408 47.6579C42.8465 49.8907 41.8885 51.5618 41.1268 52.705ZM51.5805 37.6917C51.5733 37.5047 51.5662 37.2897 51.5535 37.0508C49.8464 38.0328 47.7106 38.9146 45.2074 39.2445C45.1696 39.4704 45.1264 39.7003 45.0813 39.9319C44.1216 44.7713 42.0667 48.0138 41.5572 48.7937C40.754 50.0203 39.2917 51.9788 35.7945 55.2896C33.0969 57.8446 31.7714 59.3323 30.9198 60.6201C28.3608 64.4888 27.9267 68.0091 27.8241 69.0725C27.5179 72.226 28.4994 74.7791 28.4994 74.7791C28.4994 74.7791 28.4183 69.5543 32.942 64.9667C33.9433 63.9514 35.456 62.5747 39.9328 59.5158C42.9691 57.4407 44.3646 56.166 45.4181 55.0377C48.1302 52.1344 49.452 49.1457 49.9256 47.9729C51.7373 43.4893 51.6453 39.6077 51.5805 37.6917Z" fill="#0C8900"/>
<path d="M43.6405 47.658C42.8464 49.8905 41.8883 51.5618 41.1265 52.705C40.2946 53.9537 39.5346 54.8172 38.3696 56.1419C36.8514 57.865 36.5057 58.0559 34.6293 60.0531C32.4934 62.3245 31.4274 63.4603 30.491 64.9408C29.3725 66.7083 28.717 68.4054 28.3154 69.7506C29.8786 63.8532 32.0234 60.8554 33.7703 59.2008C33.9972 58.9859 34.2077 58.8026 34.9966 58.0651C38.0778 55.1858 39.6174 53.7462 40.8817 52.1362C41.6435 51.1672 42.6717 49.6941 43.6405 47.658Z" fill="#1A3D0A"/>
<path fill-rule="evenodd" clip-rule="evenodd" d="M66.6753 74.2498C66.6807 74.2265 66.686 74.2034 66.6912 74.1803C67.4421 70.862 67.2134 68.2144 67.0585 66.5802C66.8569 64.4292 66.277 60.9996 64.4241 57.1199C64.6671 58.0889 65.002 59.8565 64.7337 62.0093C64.7338 62.0096 64.734 62.0099 64.7341 62.0101C64.6724 62.4732 64.5867 62.8972 64.4617 63.4034C64.2421 64.2906 63.9078 65.218 63.586 65.9251C63.5863 65.9259 63.5865 65.9267 63.5867 65.9276C62.8508 67.4582 61.9532 68.5309 61.3572 69.2297C59.2664 71.6811 56.8947 72.9484 55.5027 73.6763C54.9967 73.9413 54.4942 74.1786 53.9756 74.4194C54.2872 74.4436 54.6131 74.4601 54.9515 74.4639C56.5202 74.4824 57.8401 74.2451 58.8144 73.9915C58.1057 74.3036 57.2193 74.6945 56.4519 75.0331C55.5929 75.4118 54.8829 75.725 54.7374 75.7886L54.7236 75.7946C53.6772 76.2566 52.9332 76.5851 52.1927 77.3653C51.7948 77.786 51.2059 78.4233 51.0276 79.4478C51.0258 79.4579 51.0236 79.4703 51.021 79.4848C50.962 79.8094 50.7123 81.1849 51.3967 81.749C51.7628 82.0517 52.2124 81.9695 52.9468 81.8352C53.152 81.7976 53.3793 81.756 53.6334 81.7176C54.6659 81.5614 55.2194 81.5961 55.77 81.6305C56.1933 81.657 56.615 81.6834 57.2512 81.623C59.135 81.4436 60.4931 80.7289 61.9021 79.9874L61.91 79.9833C63.4803 79.1551 64.7877 78.1695 65.8556 77.1855C66.2616 76.0657 66.4924 75.0526 66.6753 74.2498Z" fill="#0FB300"/>
<path d="M64.4982 63.2687C64.2976 64.0967 64.0312 64.8413 63.7321 65.5019C63.8778 65.9313 63.9938 66.4586 64.0011 67.0553C64.0293 69.6521 61.9916 71.2998 61.7026 71.5193C61.8575 71.638 62.0077 71.7504 62.1625 71.869C62.6088 71.587 64.8564 70.0999 65.5321 67.1106C66.0394 64.8744 65.3994 62.967 64.7638 61.7581C64.709 62.2438 64.624 62.7479 64.4982 63.2687Z" fill="url(#paint0_linear_209_434)"/>
<path fill-rule="evenodd" clip-rule="evenodd" d="M59.2122 46.7762C60.7175 48.9441 61.8306 51.9548 61.9404 54.7543C62.1421 59.9552 61.1426 62.1656 57.5411 65.4134C55.8517 66.9365 52.0701 68.6929 49.7254 69.5285C48.4333 69.9893 47.5765 70.2379 46.8688 70.4432C45.801 70.753 45.0727 70.9643 43.7015 71.6574C41.971 72.5337 40.1612 73.588 38.8197 75.0294C38.6359 74.6756 38.4829 74.2662 38.4 73.8029C38.2055 72.7506 38.4523 71.9112 38.6756 71.1849C39.2625 69.2655 40.4277 68.0703 41.1571 67.3366C42.3222 66.1695 43.4028 65.5581 44.7749 64.7835C45.6082 64.3125 46.1331 64.0776 46.7524 63.8005C47.244 63.5804 47.795 63.3339 48.607 62.9214C50.1108 62.1581 51.2886 61.4448 52.0395 60.9668C50.435 61.6653 48.0362 62.4694 45.0505 62.638C43.7089 62.7139 42.4951 62.6492 41.4381 62.5156C42.6373 61.7857 44.1032 60.9113 45.9095 59.8552C47.6338 58.8453 48.3336 58.3685 49.2562 57.7398C49.5524 57.538 49.8715 57.3205 50.2549 57.0648C52.0232 55.8809 54.4904 53.287 55.2882 50.7024C56.6892 46.1685 53.9573 41.7089 53.889 41.5977C53.9808 41.6532 56.9376 43.4987 59.2122 46.7762Z" fill="#0FB300"/>
<path d="M56.6946 55.007C55.7003 56.67 54.4613 57.6291 53.7505 58.101C54.4189 59.1166 55.0845 60.1403 55.7529 61.156C56.266 60.8566 57.0841 60.2878 57.8024 59.3298C58.0317 59.022 59.6585 56.7829 59.1814 53.7747C58.9876 52.5648 58.5136 51.6061 58.0764 50.9385C57.978 51.7953 57.6939 53.3552 56.6946 55.007Z" fill="url(#paint1_linear_209_434)"/>
<path d="M78.7058 33.1375H84.8988V39.3312H78.7058V33.1375Z" fill="#0FB300"/>
<path d="M84.9003 64.7406H78.7046V46.8881L84.8977 46.8474L84.9003 64.7406Z" fill="#0FB300"/>
<path d="M109.4 64.7398H102.087L94.8767 52.7118L84.9 52.6931L84.8982 46.8472L99.4934 46.7501C99.4934 46.7501 102.997 46.0197 102.576 42.7457C102.155 39.4696 99.2574 39.3315 99.2574 39.3315H84.8982V33.1382H99.1448C102.111 33.1382 108.759 35.8427 108.759 43.0276C108.759 51.1859 102.02 52.538 102.02 52.538L109.4 64.7398Z" fill="#1A3D0A"/>
<path d="M140.205 55.2187C140.205 56.5071 139.956 57.7373 139.505 58.8586C138.115 62.3113 134.808 64.7403 130.95 64.7403H112.056V46.2158H118.305V58.8586H130.817C132.628 58.8586 134.097 57.3476 134.097 55.4849C134.097 54.0565 133.234 52.8359 132.016 52.3444C132.082 52.3362 132.148 52.3268 132.214 52.3158C134.513 51.9671 136.539 50.7599 137.977 49.0207C138.772 49.9738 139.387 51.0912 139.767 52.3158C140.052 53.231 140.205 54.2058 140.205 55.2187Z" fill="#0FB300"/>
<path d="M140.205 42.7792C140.205 43.9875 139.989 45.1457 139.593 46.2115C139.212 47.2447 138.66 48.1923 137.977 49.0206C136.539 50.7597 134.513 51.9667 132.214 52.3157H120.282L123.29 49.2201L120.37 46.2155H130.467C131.039 46.2155 131.563 46.0214 132.035 45.762C133.097 45.1796 133.818 44.0297 133.818 42.706C133.818 40.7929 132.312 39.2424 130.453 39.2424H112.056V33.1367H130.833C134.796 33.1367 138.185 35.6663 139.555 39.2424C139.975 40.3381 140.205 41.53 140.205 42.7792Z" fill="#1A3D0A"/>
<path d="M150.773 42.7102V46.4887H167.198V52.2425H144.495V41.9186C144.495 39.8047 145.91 37.4124 146.898 36.3955C147.887 35.3785 149.863 33.1953 153.098 33.1953H171.974V39.157H154.261C153.115 39.157 150.773 40.5609 150.773 42.7102Z" fill="#1A3D0A"/>
<path d="M144.496 53.6819H150.807V64.8897H144.496V53.6819Z" fill="#0FB300"/>
<path d="M181.264 33.1365V36.767L179.234 38.8565L177.952 37.5395L174.953 40.6255V34.3393C174.953 33.6754 175.477 33.1365 176.122 33.1365H181.264Z" fill="#0FB300"/>
<path d="M181.264 38.5811V63.6876C181.264 64.3516 180.741 64.8893 180.095 64.8893H174.953V42.4395L177.952 39.3536L179.234 40.6705L181.264 38.5811Z" fill="#1A3D0A"/>
<path d="M82.108 75.7726L80.8448 73.4136H80.4901V75.7726H79.0105V69.5234H81.4937C81.9724 69.5234 82.3791 69.6094 82.7137 69.7815C83.054 69.9536 83.3078 70.191 83.4751 70.4937C83.6424 70.7904 83.726 71.1228 83.726 71.4907C83.726 71.9061 83.6106 72.2771 83.3799 72.6035C83.155 72.9299 82.8204 73.1613 82.3763 73.2978L83.7779 75.7726H82.108ZM80.4901 72.3364H81.4072C81.6783 72.3364 81.8801 72.2682 82.0128 72.1317C82.1513 71.9951 82.2205 71.8023 82.2205 71.553C82.2205 71.3157 82.1513 71.1287 82.0128 70.9922C81.8801 70.8557 81.6783 70.7874 81.4072 70.7874H80.4901V72.3364ZM84.3606 73.28C84.3606 72.7696 84.4529 72.3215 84.6375 71.9358C84.8278 71.5501 85.0845 71.2533 85.4075 71.0456C85.7306 70.8379 86.091 70.7341 86.489 70.7341C86.8294 70.7341 87.1264 70.8053 87.3803 70.9477C87.6398 71.0901 87.8388 71.277 87.9773 71.5085V70.8053H89.4568V75.7726H87.9773V75.0693C87.833 75.3008 87.6312 75.4877 87.3716 75.6301C87.1178 75.7726 86.8207 75.8438 86.4804 75.8438C86.0882 75.8438 85.7306 75.74 85.4075 75.5322C85.0845 75.3185 84.8278 75.0189 84.6375 74.6331C84.4529 74.2414 84.3606 73.7904 84.3606 73.28ZM87.9773 73.2889C87.9773 72.9091 87.8734 72.6094 87.6658 72.3898C87.4639 72.1702 87.2158 72.0604 86.9217 72.0604C86.6275 72.0604 86.3766 72.1702 86.1689 72.3898C85.9671 72.6035 85.8661 72.9002 85.8661 73.28C85.8661 73.6598 85.9671 73.9625 86.1689 74.188C86.3766 74.4076 86.6275 74.5174 86.9217 74.5174C87.2158 74.5174 87.4639 74.4076 87.6658 74.188C87.8734 73.9685 87.9773 73.6687 87.9773 73.2889ZM92.6988 74.3482L93.7458 70.8053H95.3204L93.6072 75.7726H91.7815L90.0683 70.8053H91.6518L92.6988 74.3482ZM96.6877 70.2889C96.4277 70.2889 96.2143 70.2118 96.0469 70.0575C95.8857 69.8972 95.8047 69.7014 95.8047 69.47C95.8047 69.2326 95.8857 69.0368 96.0469 68.8824C96.2143 68.7222 96.4277 68.6421 96.6877 68.6421C96.9409 68.6421 97.1488 68.7222 97.3107 68.8824C97.4774 69.0368 97.5611 69.2326 97.5611 69.47C97.5611 69.7014 97.4774 69.8972 97.3107 70.0575C97.1488 70.2118 96.9409 70.2889 96.6877 70.2889ZM97.4226 70.8053V75.7726H95.9433V70.8053H97.4226ZM104.006 72.5678C104.358 72.645 104.64 72.826 104.854 73.1109C105.067 73.3898 105.174 73.7103 105.174 74.0723C105.174 74.5945 104.995 75.01 104.637 75.3185C104.286 75.6212 103.792 75.7726 103.158 75.7726H100.329V69.5234H103.063C103.68 69.5234 104.161 69.6688 104.508 69.9596C104.86 70.2504 105.035 70.6451 105.035 71.1436C105.035 71.5115 104.94 71.8171 104.75 72.0604C104.565 72.3038 104.317 72.4729 104.006 72.5678ZM101.808 72.0515H102.778C103.02 72.0515 103.204 71.9981 103.331 71.8913C103.464 71.7786 103.53 71.6154 103.53 71.4017C103.53 71.188 103.464 71.0248 103.331 70.9121C103.204 70.7994 103.02 70.743 102.778 70.743H101.808V72.0515ZM102.898 74.5441C103.147 74.5441 103.337 74.4877 103.47 74.375C103.608 74.2563 103.677 74.0871 103.677 73.8675C103.677 73.648 103.605 73.4759 103.461 73.3512C103.322 73.2266 103.129 73.1643 102.881 73.1643H101.808V74.5441H102.898ZM106.776 70.2889C106.517 70.2889 106.303 70.2118 106.136 70.0575C105.975 69.8972 105.894 69.7014 105.894 69.47C105.894 69.2326 105.975 69.0368 106.136 68.8824C106.303 68.7222 106.517 68.6421 106.776 68.6421C107.03 68.6421 107.238 68.7222 107.399 68.8824C107.566 69.0368 107.65 69.2326 107.65 69.47C107.65 69.7014 107.566 69.8972 107.399 70.0575C107.238 70.2118 107.03 70.2889 106.776 70.2889ZM107.512 70.8053V75.7726H106.032V70.8053H107.512ZM110.781 75.8438C110.309 75.8438 109.882 75.74 109.501 75.5322C109.126 75.3245 108.829 75.0278 108.61 74.642C108.397 74.2563 108.29 73.8053 108.29 73.2889C108.29 72.7785 108.399 72.3304 108.618 71.9447C108.838 71.553 109.138 71.2533 109.518 71.0456C109.899 70.8379 110.326 70.7341 110.799 70.7341C111.272 70.7341 111.699 70.8379 112.08 71.0456C112.46 71.2533 112.76 71.553 112.979 71.9447C113.199 72.3304 113.308 72.7785 113.308 73.2889C113.308 73.7993 113.196 74.2503 112.971 74.642C112.751 75.0278 112.449 75.3245 112.062 75.5322C111.682 75.74 111.254 75.8438 110.781 75.8438ZM110.781 74.5263C111.064 74.5263 111.304 74.4195 111.5 74.2059C111.702 73.9922 111.802 73.6865 111.802 73.2889C111.802 72.8913 111.704 72.5857 111.508 72.372C111.318 72.1583 111.081 72.0515 110.799 72.0515C110.51 72.0515 110.271 72.1583 110.081 72.372C109.89 72.5798 109.795 72.8853 109.795 73.2889C109.795 73.6865 109.887 73.9922 110.072 74.2059C110.262 74.4195 110.499 74.5263 110.781 74.5263ZM119.88 69.5234V70.743H117.406V72.0604H119.257V73.2444H117.406V75.7726H115.926V69.5234H119.88ZM125.425 70.8053V75.7726H123.946V75.0961C123.796 75.3156 123.591 75.4937 123.331 75.6301C123.078 75.7607 122.796 75.826 122.484 75.826C122.114 75.826 121.788 75.7429 121.506 75.5768C121.224 75.4046 121.004 75.1583 120.848 74.8378C120.693 74.5174 120.615 74.1406 120.615 73.7073V70.8053H122.086V73.5026C122.086 73.8349 122.169 74.0931 122.337 74.2771C122.504 74.461 122.729 74.553 123.012 74.553C123.3 74.553 123.528 74.461 123.695 74.2771C123.862 74.0931 123.946 73.8349 123.946 73.5026V70.8053H125.425ZM131.04 73.2088C131.04 73.3512 131.031 73.4996 131.014 73.6539H127.665C127.688 73.9625 127.784 74.1999 127.951 74.3661C128.124 74.5263 128.334 74.6064 128.582 74.6064C128.951 74.6064 129.208 74.4462 129.353 74.1257H130.927C130.846 74.4521 130.699 74.7459 130.486 75.007C130.278 75.2681 130.015 75.4729 129.698 75.6212C129.381 75.7696 129.027 75.8438 128.634 75.8438C128.161 75.8438 127.74 75.74 127.371 75.5322C127.002 75.3245 126.713 75.0278 126.506 74.642C126.298 74.2563 126.195 73.8053 126.195 73.2889C126.195 72.7726 126.295 72.3215 126.497 71.9358C126.705 71.5501 126.993 71.2533 127.362 71.0456C127.731 70.8379 128.155 70.7341 128.634 70.7341C129.102 70.7341 129.517 70.8349 129.88 71.0367C130.243 71.2385 130.526 71.5264 130.728 71.9002C130.935 72.2741 131.04 72.7103 131.04 73.2088ZM129.526 72.8082C129.526 72.5471 129.439 72.3394 129.265 72.1851C129.093 72.0308 128.876 71.9536 128.617 71.9536C128.369 71.9536 128.158 72.0278 127.985 72.1762C127.818 72.3245 127.714 72.5352 127.674 72.8082H129.526ZM133.3 69.1851V75.7726H131.82V69.1851H133.3ZM137.685 69.5234V75.7726H136.205V69.5234H137.685ZM141.699 70.7519C142.264 70.7519 142.714 70.9417 143.048 71.3216C143.389 71.6955 143.559 72.2118 143.559 72.8705V75.7726H142.089V73.0753C142.089 72.743 142.005 72.4847 141.837 72.3008C141.67 72.1168 141.445 72.0249 141.162 72.0249C140.88 72.0249 140.655 72.1168 140.487 72.3008C140.32 72.4847 140.237 72.743 140.237 73.0753V75.7726H138.757V70.8053H140.237V71.464C140.386 71.2444 140.589 71.0723 140.843 70.9477C141.096 70.8172 141.382 70.7519 141.699 70.7519ZM144.293 73.28C144.293 72.7696 144.386 72.3215 144.57 71.9358C144.76 71.5501 145.017 71.2533 145.34 71.0456C145.663 70.8379 146.023 70.7341 146.421 70.7341C146.739 70.7341 147.027 70.8023 147.287 70.9388C147.552 71.0753 147.76 71.2593 147.91 71.4907V69.1851H149.389V75.7726H147.91V75.0604C147.771 75.2978 147.572 75.4877 147.312 75.6301C147.059 75.7726 146.762 75.8438 146.421 75.8438C146.023 75.8438 145.663 75.74 145.34 75.5322C145.017 75.3185 144.76 75.0189 144.57 74.6331C144.386 74.2414 144.293 73.7904 144.293 73.28ZM147.91 73.2889C147.91 72.9091 147.806 72.6094 147.599 72.3898C147.396 72.1702 147.148 72.0604 146.854 72.0604C146.56 72.0604 146.309 72.1702 146.102 72.3898C145.9 72.6035 145.798 72.9002 145.798 73.28C145.798 73.6598 145.9 73.9625 146.102 74.188C146.309 74.4076 146.56 74.5174 146.854 74.5174C147.148 74.5174 147.396 74.4076 147.599 74.188C147.806 73.9685 147.91 73.6687 147.91 73.2889ZM155.227 70.8053V75.7726H153.747V75.0961C153.598 75.3156 153.393 75.4937 153.133 75.6301C152.879 75.7607 152.597 75.826 152.285 75.826C151.916 75.826 151.59 75.7429 151.308 75.5768C151.025 75.4046 150.806 75.1583 150.65 74.8378C150.495 74.5174 150.416 74.1406 150.416 73.7073V70.8053H151.887V73.5026C151.887 73.8349 151.971 74.0931 152.138 74.2771C152.305 74.461 152.53 74.553 152.813 74.553C153.102 74.553 153.329 74.461 153.497 74.2771C153.664 74.0931 153.747 73.8349 153.747 73.5026V70.8053H155.227ZM158.254 75.8438C157.833 75.8438 157.458 75.7696 157.129 75.6212C156.8 75.4729 156.541 75.2711 156.35 75.0159C156.16 74.7548 156.053 74.464 156.03 74.1435H157.493C157.51 74.3156 157.587 74.4551 157.726 74.5619C157.865 74.6687 158.035 74.7221 158.236 74.7221C158.421 74.7221 158.562 74.6866 158.66 74.6153C158.765 74.5382 158.816 74.4403 158.816 74.3215C158.816 74.1791 158.744 74.0753 158.6 74.01C158.456 73.9387 158.222 73.8616 157.899 73.7785C157.553 73.6954 157.265 73.6094 157.034 73.5204C156.803 73.4254 156.604 73.28 156.437 73.0842C156.269 72.8824 156.186 72.6124 156.186 72.2741C156.186 71.9892 156.261 71.7311 156.411 71.4996C156.566 71.2622 156.792 71.0753 157.086 70.9388C157.386 70.8023 157.74 70.7341 158.15 70.7341C158.756 70.7341 159.232 70.8884 159.578 71.1969C159.93 71.5055 160.131 71.915 160.184 72.4255H158.816C158.794 72.2534 158.718 72.1168 158.591 72.016C158.47 71.915 158.308 71.8646 158.107 71.8646C157.934 71.8646 157.801 71.9002 157.709 71.9714C157.616 72.0367 157.57 72.1287 157.57 72.2474C157.57 72.3898 157.642 72.4967 157.786 72.5678C157.937 72.6391 158.167 72.7103 158.479 72.7815C158.837 72.8764 159.128 72.9714 159.353 73.0664C159.578 73.1554 159.774 73.3037 159.941 73.5115C160.114 73.7133 160.203 73.9862 160.21 74.3304C160.21 74.6213 160.129 74.8824 159.967 75.1138C159.811 75.3394 159.583 75.5174 159.283 75.6479C158.989 75.7785 158.646 75.8438 158.254 75.8438ZM163.805 74.4818V75.7726H163.053C162.516 75.7726 162.098 75.639 161.798 75.372C161.498 75.099 161.348 74.6568 161.348 74.0456V72.0693H160.76V70.8053H161.348V69.5946H162.828V70.8053H163.797V72.0693H162.828V74.0634C162.828 74.2118 162.862 74.3186 162.931 74.3839C163.001 74.4492 163.116 74.4818 163.278 74.4818H163.805ZM166.109 71.6332C166.282 71.3601 166.498 71.1465 166.758 70.9922C167.018 70.832 167.306 70.7519 167.624 70.7519V72.3631H167.217C166.848 72.3631 166.57 72.4462 166.386 72.6124C166.201 72.7726 166.109 73.0574 166.109 73.467V75.7726H164.629V70.8053H166.109V71.6332ZM169.075 70.2889C168.815 70.2889 168.601 70.2118 168.435 70.0575C168.273 69.8972 168.192 69.7014 168.192 69.47C168.192 69.2326 168.273 69.0368 168.435 68.8824C168.601 68.7222 168.815 68.6421 169.075 68.6421C169.328 68.6421 169.536 68.7222 169.698 68.8824C169.865 69.0368 169.949 69.2326 169.949 69.47C169.949 69.7014 169.865 69.8972 169.698 70.0575C169.536 70.2118 169.328 70.2889 169.075 70.2889ZM169.81 70.8053V75.7726H168.33V70.8053H169.81ZM175.433 73.2088C175.433 73.3512 175.424 73.4996 175.407 73.6539H172.059C172.082 73.9625 172.177 74.1999 172.345 74.3661C172.517 74.5263 172.728 74.6064 172.976 74.6064C173.345 74.6064 173.602 74.4462 173.746 74.1257H175.321C175.24 74.4521 175.093 74.7459 174.88 75.007C174.672 75.2681 174.41 75.4729 174.092 75.6212C173.775 75.7696 173.42 75.8438 173.028 75.8438C172.555 75.8438 172.134 75.74 171.765 75.5322C171.396 75.3245 171.107 75.0278 170.9 74.642C170.692 74.2563 170.588 73.8053 170.588 73.2889C170.588 72.7726 170.689 72.3215 170.891 71.9358C171.099 71.5501 171.387 71.2533 171.756 71.0456C172.125 70.8379 172.549 70.7341 173.028 70.7341C173.495 70.7341 173.91 70.8349 174.274 71.0367C174.637 71.2385 174.92 71.5264 175.122 71.9002C175.33 72.2741 175.433 72.7103 175.433 73.2088ZM173.919 72.8082C173.919 72.5471 173.833 72.3394 173.66 72.1851C173.486 72.0308 173.27 71.9536 173.011 71.9536C172.762 71.9536 172.552 72.0278 172.379 72.1762C172.211 72.3245 172.108 72.5352 172.067 72.8082H173.919ZM178.178 75.8438C177.757 75.8438 177.382 75.7696 177.053 75.6212C176.725 75.4729 176.465 75.2711 176.274 75.0159C176.084 74.7548 175.977 74.464 175.954 74.1435H177.417C177.434 74.3156 177.512 74.4551 177.65 74.5619C177.789 74.6687 177.959 74.7221 178.161 74.7221C178.345 74.7221 178.486 74.6866 178.585 74.6153C178.688 74.5382 178.74 74.4403 178.74 74.3215C178.74 74.1791 178.668 74.0753 178.524 74.01C178.38 73.9387 178.146 73.8616 177.823 73.7785C177.477 73.6954 177.188 73.6094 176.958 73.5204C176.727 73.4254 176.528 73.28 176.361 73.0842C176.194 72.8824 176.11 72.6124 176.11 72.2741C176.11 71.9892 176.185 71.7311 176.335 71.4996C176.491 71.2622 176.716 71.0753 177.01 70.9388C177.31 70.8023 177.665 70.7341 178.074 70.7341C178.68 70.7341 179.155 70.8884 179.502 71.1969C179.854 71.5055 180.056 71.915 180.108 72.4255H178.74C178.717 72.2534 178.642 72.1168 178.515 72.016C178.395 71.915 178.233 71.8646 178.031 71.8646C177.858 71.8646 177.725 71.9002 177.633 71.9714C177.54 72.0367 177.494 72.1287 177.494 72.2474C177.494 72.3898 177.566 72.4967 177.71 72.5678C177.861 72.6391 178.091 72.7103 178.403 72.7815C178.76 72.8764 179.052 72.9714 179.277 73.0664C179.502 73.1554 179.698 73.3037 179.865 73.5115C180.038 73.7133 180.128 73.9862 180.133 74.3304C180.133 74.6213 180.053 74.8824 179.891 75.1138C179.735 75.3394 179.507 75.5174 179.208 75.6479C178.913 75.7785 178.57 75.8438 178.178 75.8438Z" fill="#1A3D0A"/>
</g>
<defs>
<filter id="filter0_d_209_434" x="0.357796" y="0.551767" width="245.825" height="113.81" filterUnits="userSpaceOnUse" color-interpolation-filters="sRGB">
<feFlood flood-opacity="0" result="BackgroundImageFix"/>
<feColorMatrix in="SourceAlpha" type="matrix" values="0 0 0 0 0 0 0 0 0 0 0 0 0 0 0 0 0 0 127 0" result="hardAlpha"/>
<feOffset dx="-1.61206" dy="-2.41809"/>
<feGaussianBlur stdDeviation="2.01507"/>
<feComposite in2="hardAlpha" operator="out"/>
<feColorMatrix type="matrix" values="0 0 0 0 0 0 0 0 0 0 0 0 0 0 0 0 0 0 0.25 0"/>
<feBlend mode="normal" in2="BackgroundImageFix" result="effect1_dropShadow_209_434"/>
<feBlend mode="normal" in="SourceGraphic" in2="effect1_dropShadow_209_434" result="shape"/>
</filter>
<linearGradient id="paint0_linear_209_434" x1="64.3036" y1="64.3641" x2="63.5054" y2="69.923" gradientUnits="userSpaceOnUse">
<stop stop-color="#13FE00"/>
<stop offset="1" stop-color="#0FB300"/>
</linearGradient>
<linearGradient id="paint1_linear_209_434" x1="58.5208" y1="51.6458" x2="55.4122" y2="59.6676" gradientUnits="userSpaceOnUse">
<stop stop-color="#13FE00"/>
<stop offset="0.13" stop-color="#13FE00"/>
<stop offset="0.85" stop-color="#0FB300"/>
<stop offset="1" stop-color="#0FB300"/>
</linearGradient>
<clipPath id="clip0_209_434">
<rect width="159.997" height="69.3185" fill="white" transform="translate(21.3225 19.9365)"/>
</clipPath>
</defs>
</svg>
