<svg width="39" height="54" viewBox="0 0 39 54" fill="none" xmlns="http://www.w3.org/2000/svg">
<path d="M39 12.9558C39 13.5285 38.7717 14.0777 38.3654 14.4827C37.9591 14.8876 37.408 15.1151 36.8333 15.1151H28.126C28.1504 15.4714 28.1667 15.8304 28.1667 16.1948C28.1616 20.4884 26.448 24.6047 23.4016 27.6407C20.3552 30.6767 16.2249 32.3846 11.9167 32.3896H7.77021L27.4571 50.2254C27.6716 50.415 27.8462 50.6452 27.9707 50.9026C28.0953 51.1599 28.1674 51.4394 28.1828 51.7247C28.1982 52.01 28.1566 52.2956 28.0604 52.5648C27.9643 52.834 27.8155 53.0815 27.6227 53.2929C27.4298 53.5044 27.1968 53.6756 26.9371 53.7967C26.6774 53.9177 26.3961 53.9862 26.1097 53.9981C25.8232 54.01 25.5372 53.9652 25.2683 53.8661C24.9993 53.7671 24.7528 53.6159 24.5429 53.4212L0.709584 31.8281C0.385977 31.535 0.158947 31.1511 0.0583439 30.727C-0.0422592 30.3029 -0.0117278 29.8583 0.145924 29.4518C0.303575 29.0453 0.580969 28.6958 0.941635 28.4494C1.3023 28.2029 1.72936 28.071 2.16667 28.0709H11.9167C15.0761 28.0674 18.105 26.815 20.3391 24.5886C22.5731 22.3621 23.8298 19.3434 23.8333 16.1948C23.8333 15.8304 23.8144 15.4714 23.7819 15.1151H2.16667C1.59203 15.1151 1.04093 14.8876 0.634602 14.4827C0.228274 14.0777 0 13.5285 0 12.9558C0 12.3831 0.228274 11.8339 0.634602 11.429C1.04093 11.024 1.59203 10.7965 2.16667 10.7965H22.5252C21.5273 8.84764 20.0085 7.21138 18.1366 6.06828C16.2646 4.92519 14.1121 4.31969 11.9167 4.31861H2.16667C1.59203 4.31861 1.04093 4.09111 0.634602 3.68616C0.228274 3.28121 0 2.73199 0 2.1593C0 1.58662 0.228274 1.03739 0.634602 0.632446C1.04093 0.227498 1.59203 0 2.16667 0H36.8333C37.408 0 37.9591 0.227498 38.3654 0.632446C38.7717 1.03739 39 1.58662 39 2.1593C39 2.73199 38.7717 3.28121 38.3654 3.68616C37.9591 4.09111 37.408 4.31861 36.8333 4.31861H22.9504C24.8831 6.10094 26.3533 8.32375 27.235 10.7965H36.8333C37.408 10.7965 37.9591 11.024 38.3654 11.429C38.7717 11.8339 39 12.3831 39 12.9558Z" fill="black"/>
</svg>
