<svg width="52" height="54" viewBox="0 0 52 54" fill="none" xmlns="http://www.w3.org/2000/svg">
<path d="M43.6811 31.1541H23.7385L24.3495 30.544L29.5653 25.3362C31.6719 26.3955 33.993 26.9602 36.3515 26.9873C38.7254 26.9936 41.055 26.3449 43.0831 25.1129C49.2505 21.3849 52.5552 12.7554 51.9234 2.02825C51.8937 1.52015 51.6781 1.04064 51.3177 0.680747C50.9572 0.320855 50.477 0.105643 49.9681 0.0759708C39.2246 -0.55229 30.5819 2.74478 26.8482 8.90278C24.4145 12.9138 24.3521 17.7581 26.622 22.4026L22.8805 26.1384L19.7058 22.9685C21.2658 19.5287 21.154 15.959 19.3444 12.9787C16.5181 8.30826 10.0387 5.81859 2.00963 6.28848C1.50163 6.31871 1.02236 6.53382 0.662519 6.89311C0.302677 7.25241 0.0872345 7.73095 0.0569657 8.23817C-0.416249 16.2524 2.07983 22.7219 6.75997 25.5465C8.32573 26.5011 10.1256 27.0043 11.9601 27.0003C13.6245 26.9838 15.2661 26.613 16.7755 25.9125L19.9372 29.0772L17.8571 31.1541H6.23996C5.68829 31.1541 5.15922 31.3729 4.76913 31.7624C4.37904 32.1519 4.15989 32.6802 4.15989 33.231C4.15989 33.7818 4.37904 34.3101 4.76913 34.6996C5.15922 35.0891 5.68829 35.3079 6.23996 35.3079H8.73343L12.1681 50.747C12.3695 51.6717 12.8827 52.4993 13.622 53.0915C14.3613 53.6836 15.2817 54.0043 16.2295 54H33.6942C34.6419 54.0043 35.5624 53.6836 36.3017 53.0915C37.041 52.4993 37.5542 51.6717 37.7555 50.747L41.1902 35.3079H43.6811C44.2328 35.3079 44.7619 35.0891 45.152 34.6996C45.542 34.3101 45.7612 33.7818 45.7612 33.231C45.7612 32.6802 45.542 32.1519 45.152 31.7624C44.7619 31.3729 44.2328 31.1541 43.6811 31.1541ZM30.4207 11.055C33.1404 6.57406 39.5834 4.04544 47.8413 4.15707C47.9479 12.4153 45.4206 18.8459 40.9328 21.5511C37.9401 23.3684 34.3286 23.2489 30.7197 21.2447C28.7099 17.6543 28.6007 14.0431 30.4207 11.055ZM15.6289 21.8366C13.2368 23.1165 10.8681 23.1762 8.91284 21.9924C5.92275 20.1829 4.19889 15.9175 4.15989 10.3852C9.70067 10.4241 13.9752 12.1453 15.7849 15.1309C16.9705 17.0831 16.9003 19.4482 15.6289 21.8366ZM33.6942 49.8462H16.2295L13.0002 35.3079H36.9209L33.6942 49.8462Z" fill="black"/>
</svg>
