<svg width="54" height="54" viewBox="0 0 54 54" fill="none" xmlns="http://www.w3.org/2000/svg">
<path d="M19.2847 46.2847C19.2847 46.7962 19.0815 47.2868 18.7198 47.6485C18.358 48.0102 17.8674 48.2134 17.3559 48.2134H5.78295C4.76751 48.2128 3.77011 47.945 2.89095 47.4369C2.01178 46.9288 1.28181 46.1983 0.774359 45.3187C0.266908 44.4392 -0.000154602 43.4416 6.71446e-08 42.4262C0.000154737 41.4108 0.267521 40.4133 0.77524 39.5339L9.04266 25.2489L5.65516 26.153C5.40978 26.2185 5.15389 26.2351 4.90211 26.2018C4.65033 26.1684 4.40758 26.0858 4.18772 25.9586C3.74371 25.7018 3.4199 25.2791 3.28753 24.7836C3.15517 24.288 3.22509 23.7602 3.48191 23.3162C3.73874 22.8722 4.16143 22.5484 4.657 22.416L12.5579 20.3016C12.8027 20.2359 13.058 20.2192 13.3092 20.2523C13.5604 20.2853 13.8027 20.3676 14.0221 20.4943C14.2415 20.621 14.4338 20.7898 14.588 20.9908C14.7422 21.1919 14.8553 21.4214 14.9207 21.6662L17.04 29.5669C17.107 29.8128 17.1245 30.0695 17.0917 30.3222C17.0589 30.5749 16.9763 30.8186 16.8487 31.0392C16.7212 31.2597 16.5512 31.4529 16.3485 31.6074C16.1459 31.7619 15.9147 31.8747 15.6682 31.9393C15.5044 31.982 15.3359 32.0039 15.1667 32.0044C14.7424 32.004 14.33 31.8637 13.9935 31.6053C13.657 31.3468 13.4151 30.9846 13.3054 30.5747L12.3892 27.1632L4.12175 41.4627C3.95284 41.7552 3.86373 42.087 3.86332 42.4248C3.86292 42.7626 3.95123 43.0946 4.11943 43.3875C4.28764 43.6805 4.52982 43.9241 4.82176 44.094C5.1137 44.264 5.44515 44.3543 5.78295 44.3559H17.3559C17.8674 44.3559 18.358 44.5591 18.7198 44.9208C19.0815 45.2825 19.2847 45.7731 19.2847 46.2847ZM53.2151 39.5339L47.636 29.89C47.3691 29.4702 46.9503 29.1697 46.4671 29.0514C45.9839 28.933 45.4737 29.0059 45.043 29.2549C44.6123 29.5038 44.2944 29.9096 44.1558 30.3874C44.0172 30.8651 44.0685 31.378 44.2991 31.8188L49.8783 41.4627C50.0472 41.7552 50.1363 42.087 50.1367 42.4248C50.1371 42.7626 50.0488 43.0946 49.8806 43.3875C49.7124 43.6805 49.4702 43.9241 49.1782 44.094C48.8863 44.264 48.5548 44.3543 48.217 44.3559H31.6557L34.1487 41.8629C34.5106 41.5013 34.7141 41.0108 34.7143 40.4992C34.7145 39.9876 34.5115 39.4968 34.1499 39.1349C33.7883 38.773 33.2977 38.5695 32.7861 38.5693C32.2745 38.5691 31.7837 38.7721 31.4218 39.1337L25.6354 44.92C25.456 45.0992 25.3138 45.3119 25.2167 45.546C25.1196 45.7802 25.0697 46.0312 25.0697 46.2847C25.0697 46.5381 25.1196 46.7891 25.2167 47.0233C25.3138 47.2574 25.456 47.4701 25.6354 47.6493L31.4218 53.4356C31.601 53.6147 31.8138 53.7567 32.0478 53.8535C32.2819 53.9503 32.5328 54.0001 32.7861 54C33.0394 53.9999 33.2903 53.9499 33.5243 53.8528C33.7583 53.7558 33.9709 53.6136 34.1499 53.4344C34.329 53.2552 34.471 53.0425 34.5678 52.8084C34.6646 52.5743 34.7144 52.3235 34.7143 52.0701C34.7142 51.8168 34.6642 51.566 34.5671 51.332C34.4701 51.098 34.3279 50.8854 34.1487 50.7064L31.6557 48.2134H48.217C49.2325 48.2128 50.2299 47.945 51.109 47.4369C51.9882 46.9288 52.7182 46.1983 53.2256 45.3187C53.7331 44.4392 54.0002 43.4416 54 42.4262C53.9998 41.4108 53.7325 40.4133 53.2248 39.5339H53.2151ZM27 3.85147C27.339 3.84807 27.6727 3.93578 27.9662 4.10542C28.2596 4.27507 28.5022 4.52043 28.6684 4.81586L36.9358 19.1009L33.5411 18.1895C33.0531 18.075 32.5396 18.155 32.1095 18.4125C31.6794 18.67 31.3664 19.0849 31.237 19.5692C31.1075 20.0535 31.1717 20.5692 31.4159 21.007C31.6602 21.4448 32.0653 21.7703 32.5454 21.9145L40.4487 24.0338C40.6116 24.0765 40.7794 24.0984 40.9478 24.0989C41.3721 24.0984 41.7845 23.9581 42.1209 23.6997C42.4574 23.4412 42.6993 23.079 42.8091 22.6691L44.9284 14.7635C45.0012 14.5167 45.0238 14.2578 44.995 14.0021C44.9661 13.7464 44.8864 13.4991 44.7606 13.2747C44.6347 13.0502 44.4651 12.8533 44.262 12.6953C44.0588 12.5374 43.8261 12.4218 43.5775 12.3552C43.329 12.2886 43.0696 12.2724 42.8147 12.3075C42.5598 12.3427 42.3145 12.4285 42.0932 12.5599C41.872 12.6913 41.6793 12.8657 41.5265 13.0727C41.3736 13.2798 41.2638 13.5153 41.2034 13.7654L40.2872 17.1818L32.0077 2.88708C31.4994 2.00909 30.7691 1.28019 29.8902 0.773465C29.0113 0.266738 28.0145 0 27 0C25.9855 0 24.9887 0.266738 24.1098 0.773465C23.2309 1.28019 22.5006 2.00909 21.9923 2.88708L16.4083 12.531C16.1684 12.9728 16.1105 13.4908 16.2469 13.9747C16.3833 14.4586 16.7033 14.8701 17.1386 15.1216C17.574 15.373 18.0903 15.4446 18.5777 15.321C19.065 15.1973 19.4848 14.8883 19.7476 14.4598L25.3316 4.81586C25.4978 4.52043 25.7404 4.27507 26.0338 4.10542C26.3273 3.93578 26.661 3.84807 27 3.85147Z" fill="black"/>
</svg>
