<svg width="58" height="58" viewBox="0 0 58 58" fill="none" xmlns="http://www.w3.org/2000/svg">
<path d="M29 0C23.2643 0 17.6575 1.70082 12.8885 4.88738C8.11945 8.07394 4.40245 12.6031 2.20751 17.9022C0.0125652 23.2012 -0.561731 29.0322 0.55724 34.6576C1.67621 40.2831 4.43819 45.4504 8.49391 49.5061C12.5496 53.5618 17.7169 56.3238 23.3424 57.4428C28.9678 58.5617 34.7988 57.9874 40.0978 55.7925C45.3969 53.5975 49.9261 49.8805 53.1126 45.1115C56.2992 40.3425 58 34.7356 58 29C57.9919 21.3112 54.9339 13.9397 49.4971 8.50287C44.0603 3.06607 36.6888 0.00811949 29 0ZM53.5385 29C53.5409 32.1481 52.9349 35.267 51.7538 38.1852L39.2894 30.5197C38.7595 30.1927 38.1666 29.9808 37.5494 29.8979L31.1862 29.039C30.3093 28.9247 29.4183 29.0717 28.6246 29.4616C27.831 29.8514 27.17 30.4669 26.7246 31.2308H24.2931L23.2335 29.039C22.9405 28.4287 22.5118 27.8936 21.9802 27.4745C21.4485 27.0555 20.828 26.7637 20.1662 26.6214L17.9354 26.139L20.116 22.3077H24.7755C25.5295 22.3062 26.2709 22.1144 26.931 21.75L30.3468 19.865C30.6469 19.6977 30.9275 19.4976 31.1834 19.2683L38.6871 12.4812C39.4394 11.8069 39.9395 10.8964 40.1047 9.89979C40.27 8.90317 40.0906 7.87999 39.5962 6.99904L39.4958 6.81779C43.6946 8.80874 47.2428 11.9496 49.7284 15.876C52.214 19.8023 53.5351 24.353 53.5385 29ZM33.2691 4.83519L35.6923 9.17404L28.1886 15.9611L24.7755 17.8461H20.116C19.3317 17.845 18.561 18.0506 17.8815 18.4422C17.202 18.8339 16.6377 19.3977 16.2456 20.0769L13.8113 24.3237L10.981 16.7837L14.0315 9.57C16.7317 7.48365 19.8379 5.98431 23.1511 5.168C26.4644 4.3517 29.9116 4.23644 33.2719 4.82961L33.2691 4.83519ZM4.46155 29C4.45782 25.3527 5.27155 21.751 6.8429 18.4596L10.005 26.9003C10.2685 27.5991 10.7033 28.2207 11.2694 28.7078C11.8355 29.195 12.5149 29.5323 13.2452 29.6887L19.2209 30.9742L20.2833 33.1827C20.652 33.9338 21.2234 34.5669 21.9329 35.0103C22.6425 35.4538 23.4619 35.69 24.2987 35.6923H24.7114L22.6953 40.218C22.3401 41.0149 22.2263 41.8984 22.368 42.7593C22.5098 43.6202 22.9008 44.4206 23.4928 45.0615L23.5318 45.1006L29 50.7333L28.459 53.5217C22.0507 53.3726 15.9544 50.7249 11.471 46.1435C6.98758 41.5622 4.47218 35.4101 4.46155 29ZM33.0656 53.1983L33.3807 51.5782C33.5102 50.8899 33.4768 50.1808 33.2831 49.5078C33.0894 48.8347 32.7408 48.2164 32.2653 47.7022C32.2516 47.6899 32.2386 47.6769 32.2263 47.6632L26.7692 42.0333L30.5894 33.4615L36.9527 34.3204L49.7015 42.1615C47.8545 45.0622 45.4196 47.5432 42.5541 49.4442C39.6885 51.3453 36.4561 52.6242 33.0656 53.1983Z" fill="black"/>
</svg>
