<svg width="55" height="57" viewBox="0 0 55 57" fill="none" xmlns="http://www.w3.org/2000/svg">
<path d="M53.8561 53.1357C48.1114 50.3373 44.8164 44.3386 44.8164 36.6506V32.2546C44.8186 31.4391 44.5746 30.6418 44.1162 29.967C43.6578 29.2921 43.0065 28.771 42.2471 28.4717L35.9041 25.9634C35.405 25.7639 35.0051 25.3755 34.7914 24.8828C34.5778 24.3901 34.5676 23.833 34.7633 23.3329L40.1922 9.84975C40.5606 8.9648 40.7465 8.01466 40.7387 7.05624C40.7309 6.09782 40.5296 5.15083 40.1468 4.27197C39.764 3.39312 39.2077 2.60048 38.511 1.94152C37.8144 1.28256 36.9918 0.770842 36.0925 0.437001C34.3409 -0.204173 32.4081 -0.137649 30.7049 0.622434C29.0017 1.38252 27.6623 2.77624 26.9714 4.50738C26.9704 4.51753 26.9704 4.52775 26.9714 4.53791L21.6189 18.077C21.4198 18.5779 21.03 18.9794 20.535 19.1936C20.0399 19.4077 19.4801 19.4169 18.9783 19.2192L12.5053 16.5862C11.759 16.2841 10.9395 16.2113 10.1515 16.3772C9.36359 16.543 8.6431 16.94 8.08228 17.5173C2.71959 23.025 5.2074e-05 29.4613 5.2074e-05 36.6481C-0.0140408 44.0025 2.83283 51.0747 7.93968 56.3716C8.13101 56.5714 8.3611 56.7302 8.61591 56.8383C8.87071 56.9463 9.14488 57.0013 9.42167 57H52.9648C53.4253 56.9995 53.872 56.8433 54.2321 56.5567C54.5923 56.2701 54.8446 55.87 54.948 55.4218C55.0514 54.9735 54.9997 54.5035 54.8014 54.0883C54.6031 53.6732 54.2699 53.3374 53.8561 53.1357ZM10.9852 20.3666L17.4555 22.9869C18.2024 23.2854 19.0009 23.4337 19.8053 23.4232C20.6096 23.4127 21.404 23.2436 22.1428 22.9258C22.8817 22.6079 23.5504 22.1474 24.1107 21.5707C24.671 20.994 25.1118 20.3125 25.4079 19.5652L30.7553 6.08211C31.4072 4.52773 33.1667 3.72383 34.6844 4.30132C35.0713 4.44474 35.4251 4.66497 35.7245 4.94874C36.0239 5.23251 36.2626 5.57393 36.4264 5.9524C36.5901 6.33088 36.6754 6.73856 36.6771 7.15086C36.6788 7.56316 36.5968 7.97153 36.4363 8.35134L30.987 21.8319C30.3904 23.3356 30.4154 25.0144 31.0566 26.4997C31.6978 27.9849 32.9027 29.1553 34.4068 29.7539L40.7422 32.2546V36.6481C40.7422 36.732 40.7422 36.816 40.7422 36.9025L8.08992 23.8544C8.958 22.6147 9.92632 21.4482 10.9852 20.3666ZM23.2078 52.9296C20.1748 50.023 18.0262 46.319 17.0099 42.2449C16.8683 41.7296 16.5294 41.2906 16.0666 41.0227C15.6038 40.7549 15.0541 40.6796 14.5362 40.8133C14.0183 40.9469 13.5738 41.2786 13.2986 41.7369C13.0235 42.1951 12.9398 42.7431 13.0655 43.2625C13.9541 46.7674 15.5445 50.0559 17.7407 52.9296H10.2976C6.2799 48.4576 4.06279 42.6573 4.07427 36.6481C4.04935 33.4642 4.72114 30.3133 6.04262 27.416L41.1318 41.4384C41.8957 46.0176 43.8208 49.9557 46.7058 52.9271L23.2078 52.9296Z" fill="black"/>
</svg>
