<svg width="56" height="69" viewBox="0 0 56 69" fill="none" xmlns="http://www.w3.org/2000/svg">
<path d="M45.7832 43.8723C45.1231 47.5738 43.3494 50.9833 40.7007 53.642C38.052 56.3006 34.6556 58.0807 30.9686 58.7426C30.8287 58.7651 30.6872 58.7768 30.5455 58.7777C29.9069 58.7775 29.2918 58.5365 28.8221 58.1023C28.3523 57.6681 28.0623 57.0725 28.0094 56.4337C27.9565 55.7949 28.1447 55.1594 28.5367 54.6533C28.9287 54.1473 29.4957 53.8076 30.1255 53.7017C35.3977 52.8104 39.8714 48.319 40.7655 43.0162C40.8785 42.3477 41.2515 41.7517 41.8022 41.3594C42.353 40.967 43.0365 40.8103 43.7023 40.9238C44.3681 41.0373 44.9617 41.4118 45.3526 41.9647C45.7434 42.5177 45.8994 43.2038 45.7864 43.8723H45.7832ZM56 40.8887C56 48.3443 53.05 55.4945 47.799 60.7664C42.548 66.0383 35.4261 69 28 69C20.5739 69 13.452 66.0383 8.20101 60.7664C2.94999 55.4945 0 48.3443 0 40.8887C0 31.9697 3.5 22.8495 10.3918 13.7836C10.61 13.4965 10.8862 13.2592 11.2024 13.0871C11.5186 12.915 11.8675 12.8121 12.2262 12.7853C12.5848 12.7584 12.9451 12.8082 13.2832 12.9312C13.6213 13.0543 13.9296 13.2479 14.1877 13.4993L21.8623 20.9776L28.8623 1.67977C29.0021 1.29488 29.2321 0.949393 29.5328 0.672426C29.8335 0.395459 30.1961 0.195135 30.5901 0.0883438C30.9841 -0.0184479 31.3978 -0.0285777 31.7965 0.0588088C32.1952 0.146195 32.5671 0.328536 32.8809 0.59046C39.8395 6.38842 56 21.8976 56 40.8887ZM50.9091 40.8887C50.9091 26.1654 39.5214 13.4418 32.3877 6.9219L25.3018 26.4305C25.1564 26.8312 24.9134 27.189 24.595 27.4712C24.2766 27.7535 23.8929 27.9513 23.4788 28.0465C23.0648 28.1418 22.6336 28.1315 22.2245 28.0167C21.8155 27.9018 21.4415 27.686 21.1368 27.3889L12.7464 19.2174C7.665 26.5807 5.09091 33.8608 5.09091 40.8887C5.09091 46.9887 7.50454 52.8389 11.8008 57.1523C16.0971 61.4656 21.9241 63.8889 28 63.8889C34.0759 63.8889 39.9029 61.4656 44.1992 57.1523C48.4955 52.8389 50.9091 46.9887 50.9091 40.8887Z" fill="black"/>
</svg>
