<svg width="57" height="43" viewBox="0 0 57 43" fill="none" xmlns="http://www.w3.org/2000/svg">
<path d="M55.3235 0H1.67647C1.23184 0 0.805426 0.174244 0.491027 0.4844C0.176627 0.794556 0 1.21522 0 1.65385V39.141C0 40.1645 0.412131 41.146 1.14573 41.8697C1.87933 42.5934 2.8743 43 3.91176 43H53.0882C54.1257 43 55.1207 42.5934 55.8543 41.8697C56.5879 41.146 57 40.1645 57 39.141V1.65385C57 1.21522 56.8234 0.794556 56.509 0.4844C56.1946 0.174244 55.7682 0 55.3235 0ZM51.015 3.30769L28.5 23.6665L5.985 3.30769H51.015ZM53.0882 39.6923H3.91176C3.76356 39.6923 3.62142 39.6342 3.51662 39.5308C3.41182 39.4275 3.35294 39.2872 3.35294 39.141V5.41359L27.3824 27.1286C27.6914 27.4075 28.0951 27.5622 28.514 27.5622C28.9328 27.5622 29.3365 27.4075 29.6456 27.1286L53.6471 5.41359V39.141C53.6471 39.2872 53.5882 39.4275 53.4834 39.5308C53.3786 39.6342 53.2364 39.6923 53.0882 39.6923Z" fill="black"/>
</svg>
