<svg width="33" height="33" viewBox="0 0 33 33" fill="none" xmlns="http://www.w3.org/2000/svg">
<g clip-path="url(#clip0_211_487)">
<path d="M20.8416 18.3789C20.9801 18.2867 21.1393 18.2306 21.305 18.2155C21.4707 18.2005 21.6375 18.227 21.7903 18.2926L27.6853 20.9339C27.884 21.0188 28.0498 21.1658 28.158 21.3528C28.2661 21.5398 28.3108 21.7569 28.2853 21.9714C28.0911 23.4227 27.3764 24.7541 26.2742 25.7179C25.1719 26.6818 23.7571 27.2125 22.2928 27.2114C17.7841 27.2114 13.4601 25.4203 10.272 22.2322C7.08388 19.0441 5.29282 14.7201 5.29282 10.2114C5.2917 8.74715 5.82242 7.33233 6.78627 6.23006C7.75012 5.12779 9.08151 4.4131 10.5328 4.2189C10.7474 4.19341 10.9644 4.23809 11.1514 4.34625C11.3384 4.45441 11.4854 4.62023 11.5703 4.8189L14.2116 10.7189C14.2765 10.8704 14.3029 11.0357 14.2885 11.1999C14.2741 11.3641 14.2193 11.5222 14.1291 11.6601L11.4578 14.8364C11.3631 14.9794 11.307 15.1445 11.2952 15.3156C11.2834 15.4867 11.3161 15.658 11.3903 15.8126C12.4241 17.9289 14.6116 20.0901 16.7341 21.1139C16.8895 21.1877 17.0616 21.2198 17.2332 21.2069C17.4049 21.1939 17.5702 21.1365 17.7128 21.0401L20.8416 18.3789Z" stroke="black" stroke-width="2" stroke-linecap="round" stroke-linejoin="round"/>
</g>
<defs>
<clipPath id="clip0_211_487">
<rect width="32" height="32" fill="white" transform="translate(0.292816 0.211426)"/>
</clipPath>
</defs>
</svg>
