<svg width="669" height="982" viewBox="0 0 669 982" fill="none" xmlns="http://www.w3.org/2000/svg">
<path d="M535.717 569.204C525.218 582.748 513.356 590.778 505.795 595.11C496.109 580.648 486.425 566.212 476.739 551.776C487.001 545.109 505.061 531.486 519.627 507.995C534.142 484.609 538.317 462.482 539.734 450.354C546.084 459.803 553.015 473.348 555.824 490.567C562.778 533.193 539.051 564.9 535.717 569.204ZM592.018 493.243C590.418 453.583 574.195 410.931 552.254 380.221C519.102 333.79 476.005 307.647 474.667 306.859C475.663 308.434 515.481 371.613 495.061 435.841C483.433 472.456 447.473 509.203 421.699 525.974C398.706 540.884 391.565 546.605 358.363 565.504C332.036 580.465 310.67 592.853 293.191 603.194C308.598 605.085 326.289 606.002 345.843 604.927C389.361 602.539 424.324 591.148 447.71 581.252C436.765 588.023 419.599 598.128 397.681 608.943C370.936 622.146 363.612 623.354 341.827 635.321C321.827 646.294 306.078 654.956 289.096 671.49C278.464 681.884 261.482 698.815 252.927 726.006C249.673 736.296 246.075 748.187 248.911 763.095C250.119 769.657 252.349 775.457 255.027 780.47C274.581 760.05 300.959 745.114 326.182 732.701C359.413 716.374 366.736 718.919 413.98 702.541C448.156 690.704 503.274 665.822 527.896 644.245C580.39 598.235 594.959 566.921 592.018 493.243Z" fill="#0FB300"/>
<path d="M447.708 581.253C436.763 588.024 419.597 598.131 397.679 608.943C370.934 622.146 363.61 623.354 341.824 635.324C321.825 646.294 306.076 654.956 289.094 671.492C278.465 681.887 261.482 698.816 252.925 726.007C249.671 736.297 246.075 748.187 248.909 763.095C250.117 769.657 252.347 775.457 255.025 780.472C244.814 791.127 236.468 803.28 231.114 817.324C212.977 864.909 235.627 905.724 243.529 921.684C263.633 962.236 293.582 982.001 293.582 982.001C293.582 982.001 201.479 961.29 162.66 882.811C140.691 838.348 142.712 796.823 144.575 779.631C151.532 715.194 184.105 680.888 204.657 663.014C215.495 653.59 220.666 646.085 293.164 603.197H293.189C308.596 605.085 326.287 606.005 345.841 604.927C389.359 602.539 424.322 591.148 447.708 581.253Z" fill="#0B8900"/>
<path d="M661.259 768.448C658.555 779.972 655.169 794.696 649.08 811.021C633.515 824.96 614.459 838.923 591.572 850.656C570.994 861.18 551.176 871.338 523.669 873.884C502.331 875.854 497.553 871.312 470.938 875.224C453.982 877.716 445.164 881.157 438.337 875.67C427.917 867.322 432.354 846.43 432.958 843.069C435.557 828.556 444.14 819.527 449.94 813.567C460.781 802.466 471.672 797.821 487.029 791.231C491.045 789.526 524.563 775.143 546.453 765.773C532.252 769.366 513.014 772.727 490.15 772.465C485.217 772.411 480.467 772.177 475.925 771.835C483.484 768.423 490.808 765.062 498.183 761.308C518.473 750.995 553.041 733.042 583.514 698.315C592.543 688.025 606.322 672.014 617.267 648.944C619.369 655.085 621.021 662.539 621.049 671.043C621.204 707.79 591.309 730.914 587.11 734.038C589.34 735.692 591.572 737.318 593.802 738.972C600.287 735.035 633.253 714.273 643.385 671.937C650.969 640.307 641.836 613.246 632.728 596.027C636.639 565.529 631.757 540.489 628.215 526.761C655.222 581.723 663.675 630.308 666.613 660.781C668.871 683.932 672.204 721.439 661.259 768.448Z" fill="#0FB300"/>
<path d="M649.081 811.021C642.386 829.133 632.414 849.29 616.587 869.422C603.567 885.984 561.387 934.647 491.937 947.167C473.117 950.554 434.849 956.879 398.575 936.431C387.628 930.264 365.503 917.797 359.701 893.544C353.088 865.931 371.986 841.023 377.577 833.674C387.052 821.205 397.368 814.197 405.267 809.105C434.008 790.548 455.768 780.994 475.926 771.833C480.467 772.175 485.217 772.411 490.15 772.463C513.014 772.725 532.252 769.366 546.453 765.771C524.563 775.141 491.045 789.524 487.029 791.231C471.675 797.819 460.781 802.464 449.94 813.567C444.14 819.525 435.557 828.554 432.958 843.069C432.354 846.428 427.92 867.322 438.34 875.668C445.164 881.155 453.982 877.717 470.938 875.222C497.553 871.313 502.331 875.854 523.669 873.884C551.178 871.338 570.994 861.181 591.572 850.656C614.461 838.923 633.515 824.958 649.081 811.021Z" fill="#0B8900"/>
<path d="M348.073 146.986C350.382 196.541 343.636 237.119 336.919 264.941C336.182 267.933 335.395 271.269 334.449 274.89C304.371 276.99 279.382 273.106 261.849 270.298C243.843 267.383 227.386 263.42 212.608 258.958C234.972 230.243 251.22 206.436 264.974 179.164C313.714 82.6786 307.416 0 307.416 0C307.416 0 393.298 70.6325 418.677 136.278C435.845 180.739 439.492 219.614 440.621 242.447C415.739 256.359 384.608 268.853 348.126 273.524C357.548 219.981 353.06 175.15 348.073 146.986Z" fill="#0FB300"/>
<path d="M334.452 274.89C327.102 303.71 312.429 351.611 277.048 399.854C269.252 410.511 248.149 431.693 205.997 474.031C139.248 541.093 134.027 543.088 118.433 564.716C102.134 587.366 78.2486 621.305 67.9608 671.489C65.8354 681.831 57.1991 727.476 71.531 784.985C79.8513 818.345 92.606 846.665 105.1 868.872C81.4773 841.365 51.2666 795.247 46.7255 734.038C42.6838 679.496 60.7159 635.583 69.5078 614.768C86.8059 573.928 110.009 545.109 126.491 527.653C108.355 530.568 78.5389 537.732 46.7255 557.13C29.8223 567.471 16.2524 578.837 5.64868 589.466C8.3269 574.428 12.3152 557.339 18.2477 539.044C34.7304 488.1 57.8031 453.715 79.561 421.772C107.621 380.616 119.012 373.422 161.506 321.9C181.638 297.489 198.357 277.227 212.61 258.958C227.388 263.42 243.845 267.383 261.852 270.298C279.384 273.106 304.371 276.99 334.452 274.89Z" fill="#0C8900"/>
<path d="M143.71 923.518C142.373 922.678 99.1424 895.171 68.5113 854.672C59.4291 842.677 38.6421 813.463 22.4474 770.574C1.58142 715.349 -0.100302 668.182 0.00422482 647.604C0.0320987 640.57 0.345677 618.994 5.62314 589.492L5.64869 589.466C16.2524 578.837 29.8223 567.471 46.7255 557.13C78.539 537.732 108.355 530.566 126.491 527.653C110.009 545.107 86.8059 573.929 69.5078 614.769C60.7159 635.583 42.6838 679.496 46.7255 734.039C51.2667 795.247 81.4773 841.365 105.1 868.872C105.1 868.897 105.1 868.897 105.126 868.923C124.261 902.941 142.765 922.522 143.71 923.518Z" fill="#1A3D0A"/>
<path d="M288.65 464.215C276.523 481.906 265.447 494.138 248.465 512.904C226.338 537.314 221.3 540.018 193.948 568.312C162.82 600.493 147.281 616.583 133.632 637.554C117.332 662.594 107.779 686.637 101.925 705.691C124.707 622.146 155.968 579.678 181.428 556.238C184.736 553.193 187.807 550.596 199.303 540.148C244.212 499.362 266.655 478.967 285.08 456.157C296.183 442.429 311.17 421.563 325.293 392.716C313.716 424.346 299.753 448.02 288.65 464.215ZM441.016 251.53C440.911 248.88 440.807 245.835 440.623 242.45C415.741 256.362 384.611 268.854 348.126 273.527C347.575 276.728 346.946 279.985 346.289 283.265C332.301 351.823 302.35 397.757 294.924 408.806C283.217 426.183 261.903 453.927 210.931 500.83C171.612 537.026 152.293 558.101 139.88 576.345C102.582 631.15 96.255 681.021 94.7591 696.086C90.297 740.759 104.603 776.928 104.603 776.928C104.603 776.928 103.421 702.911 169.354 637.921C183.949 623.538 205.997 604.035 271.247 560.701C315.502 531.303 335.843 513.245 351.197 497.262C390.727 456.132 409.992 413.793 416.896 397.178C443.301 333.661 441.961 278.672 441.016 251.53Z" fill="#0C8900"/>
<path d="M325.29 392.716C313.716 424.343 299.751 448.02 288.648 464.215C276.523 481.905 265.445 494.137 248.465 512.903C226.338 537.314 221.298 540.018 193.949 568.312C162.818 600.49 147.281 616.58 133.632 637.553C117.33 662.593 107.776 686.635 101.923 705.691C124.707 622.146 155.968 579.678 181.429 556.238C184.736 553.193 187.805 550.596 199.303 540.148C244.212 499.359 266.653 478.965 285.08 456.157C296.183 442.429 311.17 421.561 325.29 392.716Z" fill="#1A3D0A"/>
<path d="M519.592 507.974C505.099 531.532 487.041 545.121 476.68 551.806C486.423 566.194 496.123 580.696 505.866 595.083C513.345 590.842 525.268 582.785 535.739 569.214C539.081 564.852 562.791 533.133 555.838 490.517C553.013 473.377 546.104 459.795 539.732 450.337C538.298 462.475 534.157 484.574 519.592 507.974Z" fill="url(#paint0_linear_16_91)"/>
<path d="M628.694 617.422C625.687 629.129 621.728 639.651 617.301 648.977C619.382 655.075 621.019 662.556 621.064 671.011C621.212 707.801 591.345 730.93 587.112 734.009C589.357 735.706 591.534 737.313 593.779 739.011C600.313 735.063 633.221 714.231 643.373 671.954C650.994 640.329 641.859 613.241 632.718 596.049C631.869 602.924 630.58 610.056 628.694 617.422Z" fill="url(#paint1_linear_16_91)"/>
<defs>
<linearGradient id="paint0_linear_16_91" x1="546.209" y1="460.357" x2="503.095" y2="574.826" gradientUnits="userSpaceOnUse">
<stop stop-color="#13FE00"/>
<stop offset="0.13" stop-color="#13FE00"/>
<stop offset="0.85" stop-color="#0FB300"/>
<stop offset="1" stop-color="#0FB300"/>
</linearGradient>
<linearGradient id="paint1_linear_16_91" x1="625.747" y1="632.919" x2="614.18" y2="711.675" gradientUnits="userSpaceOnUse">
<stop stop-color="#13FE00"/>
<stop offset="1" stop-color="#0FB300"/>
</linearGradient>
</defs>
</svg>
