<svg width="2332" height="982" viewBox="0 0 2332 982" fill="none" xmlns="http://www.w3.org/2000/svg">
<path d="M535.717 569.204C525.218 582.748 513.356 590.778 505.795 595.11C496.109 580.648 486.425 566.212 476.739 551.776C487.001 545.109 505.061 531.486 519.627 507.995C534.142 484.609 538.317 462.482 539.734 450.354C546.084 459.803 553.015 473.348 555.824 490.567C562.778 533.193 539.051 564.9 535.717 569.204ZM592.018 493.243C590.418 453.583 574.195 410.931 552.254 380.221C519.102 333.79 476.005 307.647 474.667 306.859C475.663 308.434 515.481 371.613 495.061 435.841C483.433 472.456 447.473 509.203 421.699 525.974C398.706 540.884 391.565 546.605 358.363 565.504C332.036 580.465 310.67 592.853 293.191 603.194C308.598 605.085 326.289 606.002 345.843 604.927C389.361 602.539 424.324 591.148 447.71 581.252C436.765 588.023 419.599 598.128 397.681 608.943C370.936 622.146 363.612 623.354 341.827 635.321C321.827 646.294 306.078 654.956 289.096 671.49C278.464 681.884 261.482 698.815 252.927 726.006C249.673 736.296 246.075 748.187 248.911 763.095C250.119 769.657 252.349 775.457 255.027 780.47C274.581 760.05 300.959 745.114 326.182 732.701C359.413 716.374 366.736 718.919 413.98 702.541C448.156 690.704 503.274 665.822 527.896 644.245C580.39 598.235 594.959 566.921 592.018 493.243Z" fill="#0FB300"/>
<path d="M447.708 581.253C436.763 588.024 419.597 598.131 397.679 608.943C370.934 622.146 363.61 623.354 341.824 635.324C321.825 646.294 306.076 654.956 289.094 671.492C278.465 681.887 261.482 698.816 252.925 726.007C249.671 736.297 246.075 748.187 248.909 763.095C250.117 769.657 252.347 775.457 255.025 780.472C244.814 791.127 236.468 803.28 231.114 817.324C212.977 864.909 235.627 905.724 243.529 921.684C263.633 962.236 293.582 982.001 293.582 982.001C293.582 982.001 201.479 961.29 162.66 882.811C140.691 838.348 142.712 796.823 144.575 779.631C151.532 715.194 184.105 680.888 204.657 663.014C215.495 653.59 220.666 646.085 293.164 603.197H293.189C308.596 605.085 326.287 606.005 345.841 604.927C389.359 602.539 424.322 591.148 447.708 581.253Z" fill="#0B8900"/>
<path d="M661.259 768.448C658.555 779.972 655.169 794.696 649.08 811.021C633.515 824.96 614.459 838.923 591.572 850.656C570.994 861.18 551.176 871.338 523.669 873.884C502.331 875.854 497.553 871.312 470.938 875.224C453.982 877.716 445.164 881.157 438.337 875.67C427.917 867.322 432.354 846.43 432.958 843.069C435.557 828.556 444.14 819.527 449.94 813.567C460.781 802.466 471.672 797.821 487.029 791.231C491.045 789.526 524.563 775.143 546.453 765.773C532.252 769.366 513.014 772.727 490.15 772.465C485.217 772.411 480.467 772.177 475.925 771.835C483.484 768.423 490.808 765.062 498.183 761.308C518.473 750.995 553.041 733.042 583.514 698.315C592.543 688.025 606.322 672.014 617.267 648.944C619.369 655.085 621.021 662.539 621.049 671.043C621.204 707.79 591.309 730.914 587.11 734.038C589.34 735.692 591.572 737.318 593.802 738.972C600.287 735.035 633.253 714.273 643.385 671.937C650.969 640.307 641.836 613.246 632.728 596.027C636.639 565.529 631.757 540.489 628.215 526.761C655.222 581.723 663.675 630.308 666.613 660.781C668.871 683.932 672.204 721.439 661.259 768.448Z" fill="#0FB300"/>
<path d="M649.081 811.021C642.386 829.133 632.414 849.29 616.587 869.422C603.567 885.984 561.387 934.647 491.937 947.167C473.117 950.554 434.849 956.879 398.575 936.431C387.628 930.264 365.503 917.797 359.701 893.544C353.088 865.931 371.986 841.023 377.577 833.674C387.052 821.205 397.368 814.197 405.267 809.105C434.008 790.548 455.768 780.994 475.926 771.833C480.467 772.175 485.217 772.411 490.15 772.463C513.014 772.725 532.252 769.366 546.453 765.771C524.563 775.141 491.045 789.524 487.029 791.231C471.675 797.819 460.781 802.464 449.94 813.567C444.14 819.525 435.557 828.554 432.958 843.069C432.354 846.428 427.92 867.322 438.34 875.668C445.164 881.155 453.982 877.717 470.938 875.222C497.553 871.313 502.331 875.854 523.669 873.884C551.178 871.338 570.994 861.181 591.572 850.656C614.461 838.923 633.515 824.958 649.081 811.021Z" fill="#0B8900"/>
<path d="M348.073 146.986C350.382 196.541 343.636 237.119 336.919 264.941C336.182 267.933 335.395 271.269 334.449 274.89C304.371 276.99 279.382 273.106 261.849 270.298C243.843 267.383 227.386 263.42 212.608 258.958C234.972 230.243 251.22 206.436 264.974 179.164C313.714 82.6786 307.416 0 307.416 0C307.416 0 393.298 70.6325 418.677 136.278C435.845 180.739 439.492 219.614 440.621 242.447C415.739 256.359 384.608 268.853 348.126 273.524C357.548 219.981 353.06 175.15 348.073 146.986Z" fill="#0FB300"/>
<path d="M334.452 274.89C327.102 303.71 312.429 351.611 277.048 399.854C269.252 410.511 248.149 431.693 205.997 474.031C139.248 541.093 134.027 543.088 118.433 564.716C102.134 587.366 78.2486 621.305 67.9608 671.489C65.8354 681.831 57.1991 727.476 71.531 784.985C79.8513 818.345 92.606 846.665 105.1 868.872C81.4773 841.365 51.2666 795.247 46.7255 734.038C42.6838 679.496 60.7159 635.583 69.5078 614.768C86.8059 573.928 110.009 545.109 126.491 527.653C108.355 530.568 78.5389 537.732 46.7255 557.13C29.8223 567.471 16.2524 578.837 5.64868 589.466C8.3269 574.428 12.3152 557.339 18.2477 539.044C34.7304 488.1 57.8031 453.715 79.561 421.772C107.621 380.616 119.012 373.422 161.506 321.9C181.638 297.489 198.357 277.227 212.61 258.958C227.388 263.42 243.845 267.383 261.852 270.298C279.384 273.106 304.371 276.99 334.452 274.89Z" fill="#0C8900"/>
<path d="M143.71 923.518C142.373 922.678 99.1424 895.171 68.5113 854.672C59.4291 842.677 38.6421 813.463 22.4474 770.574C1.58142 715.349 -0.100302 668.182 0.00422482 647.604C0.0320987 640.57 0.345677 618.994 5.62314 589.492L5.64869 589.466C16.2524 578.837 29.8223 567.471 46.7255 557.13C78.539 537.732 108.355 530.566 126.491 527.653C110.009 545.107 86.8059 573.929 69.5078 614.769C60.7159 635.583 42.6838 679.496 46.7255 734.039C51.2667 795.247 81.4773 841.365 105.1 868.872C105.1 868.897 105.1 868.897 105.126 868.923C124.261 902.941 142.765 922.522 143.71 923.518Z" fill="#1A3D0A"/>
<path d="M288.65 464.215C276.523 481.906 265.447 494.138 248.465 512.904C226.338 537.314 221.3 540.018 193.948 568.312C162.82 600.493 147.281 616.583 133.632 637.554C117.332 662.594 107.779 686.637 101.925 705.691C124.707 622.146 155.968 579.678 181.428 556.238C184.736 553.193 187.807 550.596 199.303 540.148C244.212 499.362 266.655 478.967 285.08 456.157C296.183 442.429 311.17 421.563 325.293 392.716C313.716 424.346 299.753 448.02 288.65 464.215ZM441.016 251.53C440.911 248.88 440.807 245.835 440.623 242.45C415.741 256.362 384.611 268.854 348.126 273.527C347.575 276.728 346.946 279.985 346.289 283.265C332.301 351.823 302.35 397.757 294.924 408.806C283.217 426.183 261.903 453.927 210.931 500.83C171.612 537.026 152.293 558.101 139.88 576.345C102.582 631.15 96.255 681.021 94.7591 696.086C90.297 740.759 104.603 776.928 104.603 776.928C104.603 776.928 103.421 702.911 169.354 637.921C183.949 623.538 205.997 604.035 271.247 560.701C315.502 531.303 335.843 513.245 351.197 497.262C390.727 456.132 409.992 413.793 416.896 397.178C443.301 333.661 441.961 278.672 441.016 251.53Z" fill="#0C8900"/>
<path d="M325.29 392.716C313.716 424.343 299.751 448.02 288.648 464.215C276.523 481.905 265.445 494.137 248.465 512.903C226.338 537.314 221.298 540.018 193.949 568.312C162.818 600.49 147.281 616.58 133.632 637.553C117.33 662.593 107.776 686.635 101.923 705.691C124.707 622.146 155.968 579.678 181.429 556.238C184.736 553.193 187.805 550.596 199.303 540.148C244.212 499.359 266.653 478.965 285.08 456.157C296.183 442.429 311.17 421.561 325.29 392.716Z" fill="#1A3D0A"/>
<path d="M519.592 507.974C505.099 531.532 487.041 545.121 476.68 551.806C486.423 566.194 496.123 580.696 505.866 595.083C513.345 590.842 525.268 582.785 535.739 569.214C539.081 564.852 562.791 533.133 555.838 490.517C553.013 473.377 546.104 459.795 539.732 450.337C538.298 462.475 534.157 484.574 519.592 507.974Z" fill="url(#paint0_linear_16_46)"/>
<path d="M628.694 617.422C625.687 629.129 621.728 639.651 617.301 648.977C619.382 655.075 621.019 662.556 621.064 671.011C621.212 707.801 591.345 730.93 587.112 734.009C589.357 735.706 591.534 737.313 593.779 739.011C600.313 735.063 633.221 714.231 643.373 671.954C650.994 640.329 641.859 613.241 632.718 596.049C631.869 602.924 630.58 610.056 628.694 617.422Z" fill="url(#paint1_linear_16_46)"/>
<path d="M836.375 187.008H926.639V274.752H836.375V187.008Z" fill="#0FB300"/>
<path d="M926.658 634.715H836.354V381.808L926.621 381.232L926.658 634.715Z" fill="#0FB300"/>
<path d="M1283.75 634.705H1177.17L1072.07 464.31L926.658 464.046L926.631 381.23L1139.36 379.854C1139.36 379.854 1190.43 369.507 1184.29 323.126C1178.15 276.715 1135.92 274.758 1135.92 274.758H926.631V187.021H1134.28C1177.51 187.021 1274.41 225.334 1274.41 327.12C1274.41 442.694 1176.19 461.848 1176.19 461.848L1283.75 634.705Z" fill="#1A3D0A"/>
<path d="M1732.75 499.827C1732.75 518.08 1729.12 535.507 1722.54 551.392C1702.29 600.304 1654.09 634.715 1597.86 634.715H1322.47V372.288H1413.55V551.392H1595.92C1622.31 551.392 1643.72 529.987 1643.72 503.598C1643.72 483.363 1631.14 466.072 1613.39 459.109C1614.35 458.992 1615.31 458.859 1616.27 458.704C1649.78 453.763 1679.32 436.661 1700.27 412.024C1711.86 425.525 1720.83 441.355 1726.37 458.704C1730.52 471.669 1732.75 485.478 1732.75 499.827Z" fill="#0FB300"/>
<path d="M1732.75 323.606C1732.75 340.723 1729.6 357.131 1723.83 372.23C1718.27 386.867 1710.23 400.291 1700.27 412.025C1679.32 436.662 1649.78 453.761 1616.27 458.705H1442.36L1486.21 414.851L1443.65 372.286H1590.82C1599.15 372.286 1606.79 369.537 1613.67 365.862C1629.14 357.611 1639.66 341.321 1639.66 322.569C1639.66 295.467 1617.7 273.502 1590.61 273.502H1322.47V187.006H1596.15C1653.91 187.006 1703.3 222.841 1723.27 273.502C1729.39 289.025 1732.75 305.91 1732.75 323.606Z" fill="#1A3D0A"/>
<path d="M1886.78 322.627V376.155H2126.18V457.667H1795.28V311.414C1795.28 281.467 1815.9 247.576 1830.3 233.171C1844.71 218.763 1873.52 187.835 1920.67 187.835H2195.79V272.291H1937.61C1920.92 272.291 1886.78 292.179 1886.78 322.627Z" fill="#1A3D0A"/>
<path d="M1795.29 478.054H1887.28V636.83H1795.29V478.054Z" fill="#0FB300"/>
<path d="M2331.2 187V238.432L2301.6 268.032L2282.92 249.376L2239.21 293.093V204.04C2239.21 194.635 2246.84 187 2256.25 187H2331.2Z" fill="#0FB300"/>
<path d="M2331.2 264.128V619.8C2331.2 629.206 2323.57 636.824 2314.16 636.824H2239.21V318.789L2282.92 275.072L2301.6 293.728L2331.2 264.128Z" fill="#1A3D0A"/>
<path d="M885.966 791L867.554 757.581H862.384V791H840.819V702.471H877.012C883.99 702.471 889.918 703.69 894.794 706.128C899.754 708.566 903.453 711.929 905.892 716.217C908.33 720.42 909.549 725.129 909.549 730.341C909.549 736.226 907.867 741.481 904.504 746.105C901.226 750.729 896.349 754.008 889.876 755.941L910.305 791H885.966ZM862.384 742.322H875.751C879.703 742.322 882.645 741.355 884.579 739.421C886.597 737.487 887.606 734.755 887.606 731.224C887.606 727.861 886.597 725.213 884.579 723.279C882.645 721.345 879.703 720.378 875.751 720.378H862.384V742.322ZM918.798 755.689C918.798 748.459 920.143 742.111 922.834 736.647C925.608 731.182 929.349 726.978 934.057 724.036C938.766 721.093 944.02 719.622 949.821 719.622C954.782 719.622 959.111 720.631 962.811 722.648C966.594 724.666 969.494 727.314 971.512 730.593V720.631H993.077V791H971.512V781.037C969.41 784.316 966.468 786.964 962.684 788.982C958.985 791 954.655 792.009 949.695 792.009C943.978 792.009 938.766 790.538 934.057 787.595C929.349 784.568 925.608 780.323 922.834 774.858C920.143 769.309 918.798 762.92 918.798 755.689ZM971.512 755.815C971.512 750.435 969.999 746.189 966.972 743.078C964.03 739.967 960.414 738.412 956.127 738.412C951.839 738.412 948.182 739.967 945.155 743.078C942.213 746.105 940.741 750.309 940.741 755.689C940.741 761.07 942.213 765.358 945.155 768.552C948.182 771.663 951.839 773.218 956.127 773.218C960.414 773.218 964.03 771.663 966.972 768.552C969.999 765.442 971.512 761.196 971.512 755.815ZM1040.33 770.822L1055.59 720.631H1078.54L1053.57 791H1026.96L1001.99 720.631H1025.07L1040.33 770.822ZM1098.47 713.316C1094.68 713.316 1091.57 712.223 1089.13 710.037C1086.78 707.767 1085.6 704.993 1085.6 701.714C1085.6 698.351 1086.78 695.577 1089.13 693.391C1091.57 691.121 1094.68 689.986 1098.47 689.986C1102.16 689.986 1105.19 691.121 1107.55 693.391C1109.98 695.577 1111.2 698.351 1111.2 701.714C1111.2 704.993 1109.98 707.767 1107.55 710.037C1105.19 712.223 1102.16 713.316 1098.47 713.316ZM1109.18 720.631V791H1087.62V720.631H1109.18ZM1205.13 745.6C1210.26 746.693 1214.38 749.258 1217.49 753.293C1220.6 757.245 1222.16 761.785 1222.16 766.913C1222.16 774.311 1219.55 780.197 1214.34 784.568C1209.21 788.856 1202.02 791 1192.78 791H1151.54V702.471H1191.39C1200.38 702.471 1207.4 704.531 1212.45 708.65C1217.58 712.77 1220.14 718.361 1220.14 725.423C1220.14 730.635 1218.75 734.965 1215.98 738.412C1213.29 741.859 1209.67 744.255 1205.13 745.6ZM1173.1 738.286H1187.23C1190.76 738.286 1193.45 737.529 1195.3 736.016C1197.23 734.419 1198.2 732.107 1198.2 729.08C1198.2 726.053 1197.23 723.741 1195.3 722.144C1193.45 720.547 1190.76 719.748 1187.23 719.748H1173.1V738.286ZM1188.99 773.597C1192.61 773.597 1195.38 772.798 1197.32 771.201C1199.33 769.519 1200.34 767.123 1200.34 764.012C1200.34 760.902 1199.29 758.464 1197.19 756.698C1195.17 754.933 1192.35 754.05 1188.74 754.05H1173.1V773.597H1188.99ZM1245.51 713.316C1241.73 713.316 1238.62 712.223 1236.18 710.037C1233.83 707.767 1232.65 704.993 1232.65 701.714C1232.65 698.351 1233.83 695.577 1236.18 693.391C1238.62 691.121 1241.73 689.986 1245.51 689.986C1249.21 689.986 1252.24 691.121 1254.59 693.391C1257.03 695.577 1258.25 698.351 1258.25 701.714C1258.25 704.993 1257.03 707.767 1254.59 710.037C1252.24 712.223 1249.21 713.316 1245.51 713.316ZM1256.23 720.631V791H1234.67V720.631H1256.23ZM1303.89 792.009C1297 792.009 1290.78 790.538 1285.23 787.595C1279.76 784.652 1275.43 780.449 1272.24 774.984C1269.13 769.519 1267.57 763.13 1267.57 755.815C1267.57 748.585 1269.17 742.237 1272.36 736.773C1275.56 731.224 1279.93 726.978 1285.48 724.036C1291.03 721.093 1297.25 719.622 1304.14 719.622C1311.04 719.622 1317.26 721.093 1322.81 724.036C1328.36 726.978 1332.73 731.224 1335.92 736.773C1339.12 742.237 1340.71 748.585 1340.71 755.815C1340.71 763.046 1339.08 769.435 1335.8 774.984C1332.6 780.449 1328.19 784.652 1322.56 787.595C1317.01 790.538 1310.78 792.009 1303.89 792.009ZM1303.89 773.345C1308.01 773.345 1311.5 771.831 1314.36 768.805C1317.3 765.778 1318.77 761.448 1318.77 755.815C1318.77 750.182 1317.34 745.853 1314.48 742.826C1311.71 739.799 1308.26 738.286 1304.14 738.286C1299.94 738.286 1296.45 739.799 1293.68 742.826C1290.9 745.769 1289.51 750.098 1289.51 755.815C1289.51 761.448 1290.86 765.778 1293.55 768.805C1296.32 771.831 1299.77 773.345 1303.89 773.345ZM1436.51 702.471V719.748H1400.44V738.412H1427.43V755.185H1400.44V791H1378.88V702.471H1436.51ZM1517.33 720.631V791H1495.77V781.416C1493.58 784.526 1490.6 787.049 1486.81 788.982C1483.12 790.832 1479 791.757 1474.46 791.757C1469.07 791.757 1464.32 790.58 1460.21 788.226C1456.09 785.787 1452.89 782.298 1450.62 777.758C1448.35 773.218 1447.22 767.88 1447.22 761.742V720.631H1468.65V758.842C1468.65 763.55 1469.87 767.207 1472.31 769.814C1474.75 772.42 1478.03 773.723 1482.15 773.723C1486.35 773.723 1489.67 772.42 1492.11 769.814C1494.55 767.207 1495.77 763.55 1495.77 758.842V720.631H1517.33ZM1599.16 754.68C1599.16 756.698 1599.03 758.8 1598.78 760.986H1549.97C1550.31 765.358 1551.7 768.721 1554.14 771.075C1556.66 773.345 1559.73 774.48 1563.34 774.48C1568.72 774.48 1572.46 772.21 1574.57 767.67H1597.52C1596.34 772.294 1594.2 776.455 1591.09 780.155C1588.06 783.854 1584.23 786.754 1579.61 788.856C1574.99 790.958 1569.82 792.009 1564.1 792.009C1557.2 792.009 1551.07 790.538 1545.69 787.595C1540.31 784.652 1536.1 780.449 1533.08 774.984C1530.05 769.519 1528.54 763.13 1528.54 755.815C1528.54 748.501 1530.01 742.111 1532.95 736.647C1535.98 731.182 1540.18 726.978 1545.56 724.036C1550.94 721.093 1557.12 719.622 1564.1 719.622C1570.91 719.622 1576.96 721.051 1582.26 723.909C1587.55 726.768 1591.67 730.846 1594.62 736.142C1597.64 741.439 1599.16 747.618 1599.16 754.68ZM1577.09 749.005C1577.09 745.306 1575.83 742.364 1573.3 740.178C1570.78 737.992 1567.63 736.899 1563.85 736.899C1560.23 736.899 1557.16 737.95 1554.64 740.052C1552.2 742.153 1550.69 745.138 1550.1 749.005H1577.09ZM1632.1 697.679V791H1610.53V697.679H1632.1ZM1696.02 702.471V791H1674.45V702.471H1696.02ZM1754.52 719.874C1762.76 719.874 1769.32 722.564 1774.19 727.945C1779.15 733.242 1781.63 740.556 1781.63 749.888V791H1760.2V752.789C1760.2 748.081 1758.98 744.423 1756.54 741.817C1754.1 739.211 1750.82 737.908 1746.7 737.908C1742.58 737.908 1739.3 739.211 1736.86 741.817C1734.43 744.423 1733.21 748.081 1733.21 752.789V791H1711.64V720.631H1733.21V729.963C1735.39 726.852 1738.34 724.414 1742.04 722.648C1745.73 720.799 1749.9 719.874 1754.52 719.874ZM1792.33 755.689C1792.33 748.459 1793.68 742.111 1796.37 736.647C1799.14 731.182 1802.88 726.978 1807.59 724.036C1812.3 721.093 1817.55 719.622 1823.35 719.622C1827.98 719.622 1832.18 720.589 1835.97 722.522C1839.83 724.456 1842.86 727.062 1845.05 730.341V697.679H1866.61V791H1845.05V780.911C1843.03 784.274 1840.13 786.964 1836.34 788.982C1832.64 791 1828.31 792.009 1823.35 792.009C1817.55 792.009 1812.3 790.538 1807.59 787.595C1802.88 784.568 1799.14 780.323 1796.37 774.858C1793.68 769.309 1792.33 762.92 1792.33 755.689ZM1845.05 755.815C1845.05 750.435 1843.53 746.189 1840.51 743.078C1837.56 739.967 1833.95 738.412 1829.66 738.412C1825.37 738.412 1821.72 739.967 1818.69 743.078C1815.75 746.105 1814.27 750.309 1814.27 755.689C1814.27 761.07 1815.75 765.358 1818.69 768.552C1821.72 771.663 1825.37 773.218 1829.66 773.218C1833.95 773.218 1837.56 771.663 1840.51 768.552C1843.53 765.442 1845.05 761.196 1845.05 755.815ZM1951.7 720.631V791H1930.13V781.416C1927.95 784.526 1924.96 787.049 1921.18 788.982C1917.48 790.832 1913.36 791.757 1908.82 791.757C1903.44 791.757 1898.69 790.58 1894.57 788.226C1890.45 785.787 1887.26 782.298 1884.99 777.758C1882.72 773.218 1881.58 767.88 1881.58 761.742V720.631H1903.02V758.842C1903.02 763.55 1904.24 767.207 1906.68 769.814C1909.11 772.42 1912.39 773.723 1916.51 773.723C1920.72 773.723 1924.04 772.42 1926.48 769.814C1928.91 767.207 1930.13 763.55 1930.13 758.842V720.631H1951.7ZM1995.81 792.009C1989.68 792.009 1984.21 790.958 1979.42 788.856C1974.63 786.754 1970.85 783.896 1968.07 780.281C1965.3 776.581 1963.74 772.462 1963.4 767.922H1984.72C1984.97 770.36 1986.1 772.336 1988.12 773.849C1990.14 775.362 1992.62 776.119 1995.56 776.119C1998.25 776.119 2000.31 775.615 2001.74 774.606C2003.26 773.513 2004.01 772.126 2004.01 770.444C2004.01 768.426 2002.96 766.955 2000.86 766.03C1998.76 765.021 1995.35 763.928 1990.64 762.751C1985.6 761.574 1981.4 760.355 1978.03 759.094C1974.67 757.749 1971.77 755.689 1969.33 752.915C1966.89 750.056 1965.67 746.231 1965.67 741.439C1965.67 737.403 1966.77 733.746 1968.95 730.467C1971.22 727.104 1974.5 724.456 1978.79 722.522C1983.16 720.589 1988.33 719.622 1994.3 719.622C2003.13 719.622 2010.07 721.808 2015.11 726.179C2020.24 730.551 2023.18 736.352 2023.94 743.583H2004.01C2003.68 741.145 2002.58 739.211 2000.73 737.782C1998.97 736.352 1996.61 735.638 1993.67 735.638C1991.15 735.638 1989.22 736.142 1987.87 737.151C1986.52 738.076 1985.85 739.379 1985.85 741.06C1985.85 743.078 1986.9 744.592 1989 745.6C1991.19 746.609 1994.55 747.618 1999.09 748.627C2004.31 749.972 2008.55 751.317 2011.83 752.663C2015.11 753.924 2017.97 756.025 2020.41 758.968C2022.93 761.827 2024.23 765.694 2024.32 770.57C2024.32 774.69 2023.14 778.389 2020.78 781.668C2018.51 784.863 2015.19 787.385 2010.82 789.234C2006.53 791.084 2001.53 792.009 1995.81 792.009ZM2076.73 772.714V791H2065.76C2057.94 791 2051.84 789.108 2047.47 785.325C2043.1 781.458 2040.91 775.194 2040.91 766.535V738.538H2032.34V720.631H2040.91V703.48H2062.48V720.631H2076.6V738.538H2062.48V766.787C2062.48 768.889 2062.98 770.402 2063.99 771.327C2065 772.252 2066.68 772.714 2069.04 772.714H2076.73ZM2110.31 732.359C2112.83 728.491 2115.98 725.465 2119.76 723.279C2123.55 721.009 2127.75 719.874 2132.38 719.874V742.7H2126.45C2121.07 742.7 2117.03 743.877 2114.34 746.231C2111.65 748.501 2110.31 752.536 2110.31 758.338V791H2088.74V720.631H2110.31V732.359ZM2153.53 713.316C2149.74 713.316 2146.63 712.223 2144.2 710.037C2141.84 707.767 2140.67 704.993 2140.67 701.714C2140.67 698.351 2141.84 695.577 2144.2 693.391C2146.63 691.121 2149.74 689.986 2153.53 689.986C2157.23 689.986 2160.25 691.121 2162.61 693.391C2165.05 695.577 2166.27 698.351 2166.27 701.714C2166.27 704.993 2165.05 707.767 2162.61 710.037C2160.25 712.223 2157.23 713.316 2153.53 713.316ZM2164.25 720.631V791H2142.68V720.631H2164.25ZM2246.21 754.68C2246.21 756.698 2246.08 758.8 2245.83 760.986H2197.03C2197.36 765.358 2198.75 768.721 2201.19 771.075C2203.71 773.345 2206.78 774.48 2210.39 774.48C2215.77 774.48 2219.52 772.21 2221.62 767.67H2244.57C2243.39 772.294 2241.25 776.455 2238.14 780.155C2235.11 783.854 2231.29 786.754 2226.66 788.856C2222.04 790.958 2216.87 792.009 2211.15 792.009C2204.26 792.009 2198.12 790.538 2192.74 787.595C2187.36 784.652 2183.15 780.449 2180.13 774.984C2177.1 769.519 2175.59 763.13 2175.59 755.815C2175.59 748.501 2177.06 742.111 2180 736.647C2183.03 731.182 2187.23 726.978 2192.61 724.036C2197.99 721.093 2204.17 719.622 2211.15 719.622C2217.96 719.622 2224.01 721.051 2229.31 723.909C2234.61 726.768 2238.73 730.846 2241.67 736.142C2244.7 741.439 2246.21 747.618 2246.21 754.68ZM2224.14 749.005C2224.14 745.306 2222.88 742.364 2220.36 740.178C2217.83 737.992 2214.68 736.899 2210.9 736.899C2207.28 736.899 2204.21 737.95 2201.69 740.052C2199.25 742.153 2197.74 745.138 2197.15 749.005H2224.14ZM2286.21 792.009C2280.08 792.009 2274.61 790.958 2269.82 788.856C2265.03 786.754 2261.24 783.896 2258.47 780.281C2255.69 776.581 2254.14 772.462 2253.8 767.922H2275.12C2275.37 770.36 2276.5 772.336 2278.52 773.849C2280.54 775.362 2283.02 776.119 2285.96 776.119C2288.65 776.119 2290.71 775.615 2292.14 774.606C2293.65 773.513 2294.41 772.126 2294.41 770.444C2294.41 768.426 2293.36 766.955 2291.26 766.03C2289.16 765.021 2285.75 763.928 2281.04 762.751C2276 761.574 2271.79 760.355 2268.43 759.094C2265.07 757.749 2262.17 755.689 2259.73 752.915C2257.29 750.056 2256.07 746.231 2256.07 741.439C2256.07 737.403 2257.17 733.746 2259.35 730.467C2261.62 727.104 2264.9 724.456 2269.19 722.522C2273.56 720.589 2278.73 719.622 2284.7 719.622C2293.53 719.622 2300.46 721.808 2305.51 726.179C2310.64 730.551 2313.58 736.352 2314.34 743.583H2294.41C2294.07 741.145 2292.98 739.211 2291.13 737.782C2289.37 736.352 2287.01 735.638 2284.07 735.638C2281.55 735.638 2279.61 736.142 2278.27 737.151C2276.92 738.076 2276.25 739.379 2276.25 741.06C2276.25 743.078 2277.3 744.592 2279.4 745.6C2281.59 746.609 2284.95 747.618 2289.49 748.627C2294.7 749.972 2298.95 751.317 2302.23 752.663C2305.51 753.924 2308.37 756.025 2310.8 758.968C2313.33 761.827 2314.63 765.694 2314.71 770.57C2314.71 774.69 2313.54 778.389 2311.18 781.668C2308.91 784.863 2305.59 787.385 2301.22 789.234C2296.93 791.084 2291.93 792.009 2286.21 792.009Z" fill="#1A3D0A"/>
<defs>
<linearGradient id="paint0_linear_16_46" x1="546.209" y1="460.357" x2="503.095" y2="574.826" gradientUnits="userSpaceOnUse">
<stop stop-color="#13FE00"/>
<stop offset="0.13" stop-color="#13FE00"/>
<stop offset="0.85" stop-color="#0FB300"/>
<stop offset="1" stop-color="#0FB300"/>
</linearGradient>
<linearGradient id="paint1_linear_16_46" x1="625.747" y1="632.919" x2="614.18" y2="711.675" gradientUnits="userSpaceOnUse">
<stop stop-color="#13FE00"/>
<stop offset="1" stop-color="#0FB300"/>
</linearGradient>
</defs>
</svg>
